<svg id="Слой_1" data-name="Слой 1" xmlns="http://www.w3.org/2000/svg" viewBox="0 0 237 115">
  <polygon points="201 115 0 115 0 0 138 0 138 6 6 6 6 109 201 109 201 115"/>
  <g>
    <path d="M52.73,74.93a33.27,33.27,0,0,1-9.39-1.23,21.33,21.33,0,0,1-7.16-3.54,15.73,15.73,0,0,1-4.58-5.62A16.93,16.93,0,0,1,30,57.06,15.91,15.91,0,0,1,30.79,52,16.14,16.14,0,0,1,33,47.61,17.58,17.58,0,0,1,36.55,44a22,22,0,0,1,4.6-2.69,26.45,26.45,0,0,1,5.47-1.69,31.62,31.62,0,0,1,6.18-.58c1.15,0,2.44.06,3.87.17s2.86.27,4.29.45,2.79.39,4.08.62,2.39.46,3.26.67v8.61H65.67l-2.4-4.42a1.93,1.93,0,0,0-.61-.63,5.62,5.62,0,0,0-.81-.43,24.14,24.14,0,0,0-4.2-1.33A21.44,21.44,0,0,0,53,42.28a13.77,13.77,0,0,0-5.09.9,10.4,10.4,0,0,0-3.9,2.68,12.21,12.21,0,0,0-2.5,4.37,18.79,18.79,0,0,0-.88,6,18.41,18.41,0,0,0,1,6.24A11.82,11.82,0,0,0,44.59,67a12.85,12.85,0,0,0,4.83,2.82,20.6,20.6,0,0,0,6.62,1,20.22,20.22,0,0,0,4.33-.41,21.46,21.46,0,0,0,3.37-1,16.83,16.83,0,0,0,2.62-1.3l2.11-1.33h1.62v2.83a35.26,35.26,0,0,1-3.29,1.79,34.77,34.77,0,0,1-4.19,1.72,38.58,38.58,0,0,1-4.79,1.29A25.62,25.62,0,0,1,52.73,74.93Z"/>
    <path d="M87.56,72.59l4.49-1a2.31,2.31,0,0,0,1.11-.53,1.18,1.18,0,0,0,.41-.91V43.81a1.14,1.14,0,0,0-.46-.92,2.46,2.46,0,0,0-1.06-.49l-4.49-1V39.77h21.92v1.64l-4.46,1a2.45,2.45,0,0,0-1.12.51,1.14,1.14,0,0,0-.47.9V70.14a1.12,1.12,0,0,0,.46.93,2.74,2.74,0,0,0,1.13.51l4.46,1v1.62H87.56Z"/>
    <path d="M145,75c-1.33,0-2.67-.06-4-.19s-2.69-.28-4-.48-2.63-.43-3.92-.68-2.55-.53-3.77-.81L128.56,63h2.67l2.84,4.91a2.47,2.47,0,0,0,.28.33l.41.38c.15.12.29.23.44.33a2.31,2.31,0,0,0,.39.22,19.43,19.43,0,0,0,2.62,1c1,.31,2,.57,2.95.79s2,.4,2.87.52a17.49,17.49,0,0,0,2.4.19,12.81,12.81,0,0,0,3.53-.45,8.89,8.89,0,0,0,2.67-1.2,5.55,5.55,0,0,0,1.7-1.79,4.16,4.16,0,0,0,.61-2.19,4,4,0,0,0-.37-1.75,4.27,4.27,0,0,0-1.13-1.42,8,8,0,0,0-1.88-1.12,21.66,21.66,0,0,0-2.63-1c-.88-.26-1.75-.48-2.62-.67l-2.58-.54-2.55-.56q-1.27-.29-2.55-.66A16.88,16.88,0,0,1,135,56.85a11.45,11.45,0,0,1-2.7-2.11,8.41,8.41,0,0,1-1.67-2.57,7.61,7.61,0,0,1-.58-2.92,6.41,6.41,0,0,1,.63-2.77A9.26,9.26,0,0,1,132.38,44,13.37,13.37,0,0,1,135,41.94a17.12,17.12,0,0,1,3.45-1.58,25.9,25.9,0,0,1,4.08-1,28,28,0,0,1,4.55-.36c1.37,0,2.74,0,4.12.12s2.69.2,4,.35,2.47.32,3.61.52,2.21.42,3.18.65v9.13H159.3l-2.53-4.59a2.33,2.33,0,0,0-.64-.66,7.46,7.46,0,0,0-.82-.51,8.38,8.38,0,0,0-1.87-.73,23.53,23.53,0,0,0-2.37-.53c-.82-.15-1.62-.26-2.41-.34s-1.45-.11-2-.11a12.22,12.22,0,0,0-3.16.38,7.73,7.73,0,0,0-2.37,1.06,5.29,5.29,0,0,0-1.48,1.51,3.23,3.23,0,0,0-.53,1.71,4.81,4.81,0,0,0,.33,1.78,4.18,4.18,0,0,0,1,1.52,7,7,0,0,0,1.89,1.24,17.34,17.34,0,0,0,2.89,1c.84.22,1.66.41,2.47.59l2.45.53c.82.18,1.66.37,2.51.58s1.76.45,2.7.73a23.52,23.52,0,0,1,3.33,1.32,12.32,12.32,0,0,1,2.89,1.92,9.37,9.37,0,0,1,2,2.61,7.06,7.06,0,0,1,.77,3.31,8,8,0,0,1-1.11,4,10.22,10.22,0,0,1-3.48,3.48A20.53,20.53,0,0,1,153.79,74,35.25,35.25,0,0,1,145,75Z"/>
  </g>
  <rect x="30" y="19.5" width="135" height="3"/>
  <rect x="225.36" y="91.5" width="11.64" height="3"/>
  <rect x="217.5" y="99.36" width="3" height="11.64"/>
  <rect x="217.5" y="75" width="3" height="11.64"/>
  <rect x="30" y="91.5" width="182.64" height="3"/>
  <path d="M219,101.49,210.51,93,219,84.51,227.49,93ZM214.76,93,219,97.24,223.24,93,219,88.76Z"/>
</svg>
