<svg id="Слой_1" data-name="Слой 1" xmlns="http://www.w3.org/2000/svg" viewBox="0 0 123.47 89.9">
  <defs>
    <style>
      .cls-1 {
        fill: #fff;
      }

      .cls-2 {
        fill: none;
      }

      .cls-3 {
        fill: #ddd;
      }
    </style>
  </defs>
  <g>
    <g>
      <g>
        <path class="cls-1" d="M38.91,54.94a10.87,10.87,0,0,1-4.34-4.08,11.95,11.95,0,0,1,0-11.84,11,11,0,0,1,4.34-4.08,13.1,13.1,0,0,1,6.22-1.46,13.37,13.37,0,0,1,5.44,1.07,10.56,10.56,0,0,1,4,3.09l-4,3.59a6.67,6.67,0,0,0-8.4-1.8,5.52,5.52,0,0,0-2.17,2.22,7.44,7.44,0,0,0,0,6.59,5.52,5.52,0,0,0,2.17,2.22,6.67,6.67,0,0,0,8.4-1.8l4,3.59a10.56,10.56,0,0,1-4,3.09,13.37,13.37,0,0,1-5.44,1.07A13,13,0,0,1,38.91,54.94Z" transform="translate(0 0)"/>
        <path class="cls-1" d="M45.13,56.52A13.14,13.14,0,0,1,38.85,55h0a11,11,0,0,1-4.37-4.12,12,12,0,0,1,0-12,11.12,11.12,0,0,1,4.37-4.12,13.25,13.25,0,0,1,6.28-1.47,13.45,13.45,0,0,1,5.49,1.08,10.39,10.39,0,0,1,4.07,3.12l.07.08-4.13,3.74-.08-.09a6.44,6.44,0,0,0-5.11-2.54,6.35,6.35,0,0,0-3.14.77,5.33,5.33,0,0,0-2.13,2.18,7.27,7.27,0,0,0,0,6.47,5.39,5.39,0,0,0,2.13,2.18,6.35,6.35,0,0,0,3.14.77,6.47,6.47,0,0,0,5.11-2.54l.08-.09,4.13,3.74-.07.08a10.58,10.58,0,0,1-4.07,3.12A13.45,13.45,0,0,1,45.13,56.52Zm0-22.93A12.9,12.9,0,0,0,39,35.05a11,11,0,0,0-4.29,4,11.81,11.81,0,0,0,0,11.73,11,11,0,0,0,4.29,4h0a12.89,12.89,0,0,0,6.17,1.45,13.24,13.24,0,0,0,5.4-1.06,10.32,10.32,0,0,0,3.92-3l-3.8-3.44a6.74,6.74,0,0,1-8.46,1.74A5.64,5.64,0,0,1,40,48.29a7.48,7.48,0,0,1,0-6.69,5.64,5.64,0,0,1,2.22-2.27,6.55,6.55,0,0,1,3.25-.8,6.63,6.63,0,0,1,5.21,2.53l3.8-3.44a10.38,10.38,0,0,0-3.92-3A13.24,13.24,0,0,0,45.13,33.59Z" transform="translate(0 0)"/>
      </g>
      <g>
        <path class="cls-1" d="M76.27,33.92h6.24V56H76.27Z" transform="translate(0 0)"/>
        <path class="cls-1" d="M82.62,56.08H76.16V33.81h6.46Zm-6.23-.23h6V34h-6Z" transform="translate(0 0)"/>
      </g>
      <g>
        <path class="cls-1" d="M108.4,55.75A12.68,12.68,0,0,1,104.3,54l2-4.59A13.36,13.36,0,0,0,109.78,51a13.08,13.08,0,0,0,3.85.6c2.39,0,3.59-.6,3.59-1.8a1.5,1.5,0,0,0-1-1.4,19.58,19.58,0,0,0-3.29-1,32.11,32.11,0,0,1-4.16-1.15,7,7,0,0,1-2.86-2,5.3,5.3,0,0,1-1.2-3.65,6.37,6.37,0,0,1,1.1-3.64,7.4,7.4,0,0,1,3.29-2.56,13.55,13.55,0,0,1,5.37-1,18.76,18.76,0,0,1,4.29.49,13,13,0,0,1,3.71,1.43L120.52,40a12.86,12.86,0,0,0-6.11-1.7,5.11,5.11,0,0,0-2.71.55,1.67,1.67,0,0,0-.85,1.43,1.44,1.44,0,0,0,1,1.33,18,18,0,0,0,3.25.91,31,31,0,0,1,4.17,1.15,7.17,7.17,0,0,1,2.86,1.95,5.23,5.23,0,0,1,1.22,3.64,6.17,6.17,0,0,1-1.11,3.59,7.47,7.47,0,0,1-3.3,2.57,13.41,13.41,0,0,1-5.36,1A20.4,20.4,0,0,1,108.4,55.75Z" transform="translate(0 0)"/>
        <path class="cls-1" d="M113.59,56.52a20.63,20.63,0,0,1-5.22-.66,12.77,12.77,0,0,1-4.13-1.78l-.08-.06,2.14-4.8.11.07a13.85,13.85,0,0,0,7.22,2.15c2.3,0,3.47-.56,3.47-1.68a1.36,1.36,0,0,0-.95-1.29,19.82,19.82,0,0,0-3.27-1,31,31,0,0,1-4.18-1.15,7.28,7.28,0,0,1-2.91-2,5.46,5.46,0,0,1-1.22-3.73,6.41,6.41,0,0,1,1.12-3.7A7.51,7.51,0,0,1,109,34.32a13.79,13.79,0,0,1,5.41-1,18.93,18.93,0,0,1,4.31.49,13.32,13.32,0,0,1,3.75,1.44l.09.05,0,.09-2,4.75-.11-.06a12.77,12.77,0,0,0-6.06-1.69,4.94,4.94,0,0,0-2.64.54,1.52,1.52,0,0,0-.8,1.33,1.3,1.3,0,0,0,.94,1.22,17.78,17.78,0,0,0,3.22.91,31,31,0,0,1,4.19,1.15,7.4,7.4,0,0,1,2.91,2,5.36,5.36,0,0,1,1.24,3.71,6.35,6.35,0,0,1-1.12,3.65A7.59,7.59,0,0,1,119,55.55,13.44,13.44,0,0,1,113.59,56.52Zm-9.14-2.58a12.92,12.92,0,0,0,4,1.7h0a20.61,20.61,0,0,0,5.16.65,13.34,13.34,0,0,0,5.31-.95,7.52,7.52,0,0,0,3.26-2.52,6.13,6.13,0,0,0,1.08-3.53,5.17,5.17,0,0,0-1.18-3.56,7.14,7.14,0,0,0-2.82-1.92,30.39,30.39,0,0,0-4.16-1.15,17.44,17.44,0,0,1-3.26-.92,1.52,1.52,0,0,1-1.08-1.43,1.75,1.75,0,0,1,.9-1.52,5.23,5.23,0,0,1,2.77-.57,12.93,12.93,0,0,1,6.06,1.65l1.83-4.42a12.79,12.79,0,0,0-3.6-1.37,19,19,0,0,0-4.26-.49,13.51,13.51,0,0,0-5.32.94,7.31,7.31,0,0,0-3.24,2.53,6.19,6.19,0,0,0-1.08,3.57A5.26,5.26,0,0,0,106,44.21a6.92,6.92,0,0,0,2.82,1.93,30.63,30.63,0,0,0,4.14,1.15,19,19,0,0,1,3.32,1,1.6,1.6,0,0,1,1.09,1.5c0,1.27-1.25,1.91-3.7,1.91a13.22,13.22,0,0,1-3.88-.6,13,13,0,0,1-3.35-1.52Z" transform="translate(0 0)"/>
      </g>
    </g>
    <line class="cls-2" x1="70.46" y1="30.42" x2="70.3" y2="30.51"/>
    <g>
      <g>
        <path class="cls-3" d="M71.3,57.49a29,29,0,1,1-1-27l-4.39,2.58c-.18-.3-.35-.6-.54-.9a.83.83,0,0,1-.08-.12c-.07-.12-.15-.23-.23-.35L65,31.58c-.08-.11-.15-.22-.23-.32l-.12-.18c-.08-.12-.16-.23-.25-.34l-.1-.14L64,30.26l-.08-.09c-.09-.13-.19-.25-.29-.37l-.37-.45c-.14-.16-.29-.32-.43-.49h0c-.2-.21-.39-.42-.6-.63s-.2-.21-.31-.31l-.31-.3h0l-.57-.53h0l-.88-.75h0c-.41-.32-.82-.64-1.24-.94L58.29,25l-.65-.42A23.93,23.93,0,0,0,28.19,28l-.41.42c-.26.27-.52.55-.77.84l-.37.44c-.21.26-.42.52-.62.79s-.2.27-.3.41h0l-.3.41h0c-.19.27-.37.56-.55.84l-.27.43h0l-.25.43h0c-.09.14-.17.29-.25.44h0a3.24,3.24,0,0,0-.17.32l-.17.31c0,.09-.09.18-.13.28a3.54,3.54,0,0,0-.19.39l0,0c-.06.13-.12.25-.17.38a.36.36,0,0,0,0,.09l-.06.14c-.1.23-.2.45-.28.68s-.1.23-.14.34-.09.23-.13.35l-.12.35-.09.26s0,.11-.05.16,0,.07,0,.11l-.06.2c0,.11-.07.22-.1.33s-.06.23-.1.35l-.09.36a2.37,2.37,0,0,0-.09.36c-.06.24-.12.49-.17.73s-.05.25-.07.37-.09.49-.13.74l-.06.38c-.06.37-.1.75-.14,1.13l0,.38c0,.38-.05.77-.06,1.15,0,.12,0,.25,0,.37v.07c0,.11,0,.23,0,.34s0,.22,0,.34v.07c0,.12,0,.24,0,.37,0,.38,0,.77.06,1.15l0,.38c0,.38.08.76.14,1.13l.06.38c0,.24.08.49.13.74s0,.24.07.37.11.48.17.73a2.37,2.37,0,0,0,.09.36l.09.36c0,.12.07.23.1.35s.07.22.1.33l.06.2s0,.07,0,.11,0,.1.05.16l.09.26.12.35c0,.12.09.23.13.34s.09.23.14.35.18.45.28.67l.06.15a.36.36,0,0,0,0,.09c.05.13.11.25.17.38l0,0c.06.13.12.26.19.39s.09.19.13.28l.17.31c.05.11.11.21.17.32h0l.18.33,0,0a.22.22,0,0,0,.05.08h0l.12.21.13.22a.41.41,0,0,1,0,.09c.08.11.15.23.22.34.18.28.36.56.55.84s.39.55.6.82.41.53.62.79l.37.43c.25.29.51.58.77.85s.27.28.41.41A23.91,23.91,0,0,0,62,61.9l.28-.29c.1-.1.19-.2.29-.29s.37-.4.54-.61.36-.41.53-.62l.57-.72.27-.37c.13-.17.25-.35.37-.52l0-.08.36-.54c.17-.26.33-.52.48-.79l.21-.35c.1-.18.2-.36.29-.54l.29-.55Z" transform="translate(0 0)"/>
        <path class="cls-3" d="M21.18,44.41v1.32c0-.13,0-.25,0-.37v-.07c0-.12,0-.23,0-.34s0-.23,0-.34v-.07c0-.12,0-.25,0-.37Z" transform="translate(0 0)"/>
        <path class="cls-3" d="M21.23,46.5c0-.1,0-.21,0-.31C21.21,46.29,21.22,46.4,21.23,46.5Z" transform="translate(0 0)"/>
        <path class="cls-3" d="M21.21,46.19c0-.15,0-.31,0-.46C21.19,45.88,21.2,46,21.21,46.19Z" transform="translate(0 0)"/>
        <path class="cls-3" d="M21.23,43.4c0,.1,0,.21,0,.31C21.21,43.61,21.22,43.5,21.23,43.4Z" transform="translate(0 0)"/>
        <path class="cls-3" d="M21.21,43.71c0,.15,0,.31,0,.46C21.19,44,21.2,43.86,21.21,43.71Z" transform="translate(0 0)"/>
        <path class="cls-3" d="M21.23,46.62V46.5a1.62,1.62,0,0,0,0,.22l0,.37h0c0-.07,0-.14,0-.21Z" transform="translate(0 0)"/>
        <path class="cls-3" d="M21.24,43.18a1.55,1.55,0,0,0,0,.22v-.12l0-.26c0-.07,0-.14,0-.21h0Z" transform="translate(0 0)"/>
        <path class="cls-3" d="M21.27,47.1h0v0l0,.31a.88.88,0,0,1,0,.16v0c0-.1,0-.2,0-.3A.86.86,0,0,0,21.27,47.1Z" transform="translate(0 0)"/>
        <path class="cls-3" d="M21.27,42.76v.05h0a.86.86,0,0,0,0-.16c0-.1,0-.2,0-.3v-.05a.88.88,0,0,1,0,.16Z" transform="translate(0 0)"/>
        <path class="cls-3" d="M21.4,48.2c0-.19-.06-.39-.08-.59C21.34,47.81,21.37,48,21.4,48.2Z" transform="translate(0 0)"/>
        <path class="cls-3" d="M21.4,41.7c0,.19-.06.39-.08.59C21.34,42.09,21.37,41.89,21.4,41.7Z" transform="translate(0 0)"/>
        <path class="cls-3" d="M21.4,48.21h0l.06.46a2.17,2.17,0,0,1,0,.25c0,.15.06.3.08.45l.06.29v.07c0-.08,0-.15,0-.22a2.56,2.56,0,0,1-.05-.27l0-.1-.06-.37-.06-.38A1.1,1.1,0,0,1,21.4,48.21Z" transform="translate(0 0)"/>
        <path class="cls-3" d="M21.4,41.69h0a1.1,1.1,0,0,1,0-.18l.06-.38.06-.37,0-.1a2.56,2.56,0,0,1,.05-.27c0-.07,0-.15,0-.22v.07l-.06.29c0,.15,0,.3-.08.45a2.17,2.17,0,0,1,0,.25Z" transform="translate(0 0)"/>
        <path class="cls-3" d="M21.65,49.73h0c0,.1.05.2.07.3s.07.32.1.47a1.74,1.74,0,0,1,.05.22c.05.16.09.33.13.49h0L21.94,51a2.37,2.37,0,0,1-.09-.36l-.09-.37v0c0-.11,0-.22-.07-.33Z" transform="translate(0 0)"/>
        <path class="cls-3" d="M21.65,40.17h0l0-.15c0-.11.05-.22.07-.33v0l.09-.37a2.37,2.37,0,0,1,.09-.36l.06-.25h0c0,.17-.08.34-.13.5a1.6,1.6,0,0,1-.05.21c0,.16-.07.32-.1.48S21.67,40.07,21.65,40.17Z" transform="translate(0 0)"/>
        <path class="cls-3" d="M22,51.22h0l0,0c0,.15.08.3.13.45a4.74,4.74,0,0,0,.15.5c.05.16.1.32.16.49v0s0,0,0,0-.05-.15-.08-.22,0-.11-.05-.16,0-.07,0-.11l-.06-.2c0-.11-.07-.22-.1-.33s-.06-.23-.1-.35Z" transform="translate(0 0)"/>
        <path class="cls-3" d="M22,38.64l0,0h0l0-.11c0-.12.07-.23.1-.35s.07-.22.1-.33l.06-.2s0-.07,0-.11,0-.11.05-.16.05-.14.08-.22,0,0,0,0v0c-.06.17-.11.33-.16.49a4.58,4.58,0,0,0-.15.49C22.1,38.34,22.06,38.49,22,38.64Z" transform="translate(0 0)"/>
        <path class="cls-3" d="M23.1,35.54c-.09.19-.17.39-.24.58l.18-.45a2.29,2.29,0,0,1,.1-.23l.06-.14a.36.36,0,0,1,0-.09c.05-.13.11-.25.17-.38l0,0a3.54,3.54,0,0,1,.19-.39l-.22.44-.21.47Z" transform="translate(0 0)"/>
        <path class="cls-3" d="M23.41,55.07l.22.44c-.07-.13-.13-.26-.19-.39l0,0c-.06-.13-.12-.25-.17-.38a.36.36,0,0,1,0-.09l-.06-.15a1.47,1.47,0,0,1-.1-.22l-.18-.45c.07.19.15.39.24.58l.1.24Z" transform="translate(0 0)"/>
        <path class="cls-3" d="M24.1,56.42c-.06-.11-.12-.21-.17-.32l-.17-.31c0-.09-.09-.18-.13-.28.07.16.15.31.23.46S24,56.28,24.1,56.42Z" transform="translate(0 0)"/>
        <path class="cls-3" d="M23.86,33.92c-.08.16-.16.31-.23.47,0-.1.09-.19.13-.28l.17-.31a3.24,3.24,0,0,1,.17-.32Z" transform="translate(0 0)"/>
        <path class="cls-3" d="M24.87,57.73c.18.28.36.56.55.84C25.23,58.29,25.05,58,24.87,57.73Z" transform="translate(0 0)"/>
        <path class="cls-3" d="M24.87,32.17c.18-.28.36-.57.55-.84C25.23,31.6,25.05,31.89,24.87,32.17Z" transform="translate(0 0)"/>
        <path class="cls-3" d="M27.78,61.46c-.26-.27-.52-.56-.77-.85C27.26,60.9,27.52,61.19,27.78,61.46Z" transform="translate(0 0)"/>
        <path class="cls-3" d="M27.78,28.44c-.26.27-.52.56-.77.84C27.26,29,27.52,28.71,27.78,28.44Z" transform="translate(0 0)"/>
      </g>
      <path class="cls-1" d="M66.54,55.63l-.29.55c-.09.18-.19.36-.29.54l-.21.35c-.15.27-.31.53-.48.79l-.36.54,0,.08-.37.52-.27.37-.57.72c-.17.21-.35.42-.53.62l-.54.61c-.1.09-.19.19-.29.29L62,61.9a23.91,23.91,0,0,1-33.82,0c-.14-.13-.27-.27-.41-.41s-.52-.56-.77-.85l-.37-.43c-.21-.26-.42-.52-.62-.79s-.4-.54-.6-.82-.37-.56-.55-.84c-.07-.11-.14-.23-.22-.34a.41.41,0,0,0,0-.09l-.13-.22-.12-.21h0a.22.22,0,0,1-.05-.08l0,0-.18-.33h0c-.06-.11-.12-.21-.17-.32a.54.54,0,0,1-.07-.13l-.1-.18c0-.09-.09-.18-.13-.28s-.13-.26-.19-.39l0,0h0c-.06-.13-.12-.25-.17-.38l0-.09h0l-.06-.15a1.47,1.47,0,0,1-.1-.22l-.18-.45-.14-.35c0-.11-.08-.22-.13-.34l-.12-.35s0,0,0,0-.05-.15-.08-.22,0-.11-.05-.16l0-.11h0l-.06-.2a2.63,2.63,0,0,1-.08-.3l0,0c0-.12-.06-.23-.1-.35l0-.11h0L21.94,51l-.07-.25s0-.08,0-.11l-.09-.37v0c0-.11,0-.22-.07-.33l0-.15v-.07l0-.15a2.56,2.56,0,0,1-.05-.27l0-.1-.06-.37s0-.07,0-.1,0-.19,0-.28a1.1,1.1,0,0,1,0-.18c0-.22-.06-.43-.08-.65s0-.2,0-.3a.86.86,0,0,0,0-.16h0l0-.21,0-.26c0-.3,0-.59,0-.89V44.17c0-.3,0-.6,0-.89l0-.26,0-.21h0a.86.86,0,0,0,0-.16c0-.1,0-.2,0-.3s.05-.43.08-.65a1.1,1.1,0,0,1,0-.18c0-.09,0-.19,0-.28s0-.06,0-.1l.06-.37,0-.1a2.56,2.56,0,0,1,.05-.27l0-.15v-.07l0-.15c0-.11.05-.22.07-.33v0l.09-.37s0-.07,0-.11l.07-.25.06-.25h0l0-.11c0-.12.07-.23.1-.35s0,0,0,0,.05-.19.08-.29l.06-.2h0l0-.11s0-.11.05-.16.05-.14.08-.22,0,0,0,0l.12-.35c.05-.12.09-.23.13-.35s.09-.22.14-.34l.18-.45a2.29,2.29,0,0,1,.1-.23l.06-.14h0l0-.09c.05-.13.11-.25.17-.38h0l0,0a3.54,3.54,0,0,1,.19-.39c0-.1.09-.19.13-.28s.07-.12.1-.19a.75.75,0,0,1,.07-.12,3.24,3.24,0,0,1,.17-.32h0c.08-.15.16-.3.25-.44h0l.25-.43h0l.27-.43c.18-.28.36-.57.55-.84h0l.3-.41h0l.3-.41c.2-.27.41-.53.62-.79l.37-.44c.25-.28.51-.57.77-.84l.41-.42a23.93,23.93,0,0,1,29.45-3.47l.65.42.64.43c.42.3.83.62,1.24.94h0l.88.75h0l.57.53h0l.31.3c.11.1.21.21.31.31l.6.63h0c.14.17.29.33.43.49l.37.45c.1.12.2.24.29.37l.08.09.26.34.1.14c.09.11.17.22.25.34l.12.18c.08.1.15.21.23.32l.09.14.23.35a.83.83,0,0,0,.08.12l.54.9-5.64,3.32a17.4,17.4,0,1,0,.14,16.82Z" transform="translate(0 0)"/>
    </g>
    <path class="cls-1" d="M21.18,44.41v1.32c0-.13,0-.25,0-.37v-.07c0-.12,0-.23,0-.34s0-.23,0-.34v-.07c0-.12,0-.25,0-.37Z" transform="translate(0 0)"/>
    <path class="cls-1" d="M21.23,46.5c0-.1,0-.21,0-.31C21.21,46.29,21.22,46.4,21.23,46.5Z" transform="translate(0 0)"/>
    <path class="cls-1" d="M21.21,46.19c0-.15,0-.31,0-.46C21.19,45.88,21.2,46,21.21,46.19Z" transform="translate(0 0)"/>
    <path class="cls-1" d="M21.21,43.71c0,.15,0,.31,0,.46C21.19,44,21.2,43.86,21.21,43.71Z" transform="translate(0 0)"/>
    <path class="cls-1" d="M21.23,43.4c0,.1,0,.21,0,.31C21.21,43.61,21.22,43.5,21.23,43.4Z" transform="translate(0 0)"/>
    <path class="cls-1" d="M21.23,46.62V46.5a1.62,1.62,0,0,0,0,.22l0,.37h0c0-.07,0-.14,0-.21Z" transform="translate(0 0)"/>
    <path class="cls-1" d="M21.24,43.18a1.55,1.55,0,0,0,0,.22v-.12l0-.26c0-.07,0-.14,0-.21h0Z" transform="translate(0 0)"/>
    <path class="cls-1" d="M21.27,47.1h0v0l0,.31a.88.88,0,0,1,0,.16v0c0-.1,0-.2,0-.3A.86.86,0,0,0,21.27,47.1Z" transform="translate(0 0)"/>
    <path class="cls-1" d="M21.27,42.76v.05h0a.86.86,0,0,0,0-.16c0-.1,0-.2,0-.3v-.05a.88.88,0,0,1,0,.16Z" transform="translate(0 0)"/>
    <path class="cls-1" d="M21.4,48.2c0-.19-.06-.39-.08-.59C21.34,47.81,21.37,48,21.4,48.2Z" transform="translate(0 0)"/>
    <path class="cls-1" d="M21.4,41.7c0,.19-.06.39-.08.59C21.34,42.09,21.37,41.89,21.4,41.7Z" transform="translate(0 0)"/>
    <path class="cls-1" d="M21.4,48.21h0l.06.46a2.17,2.17,0,0,1,0,.25c0,.15.06.3.08.45l.06.29v.07c0-.08,0-.15,0-.22a2.56,2.56,0,0,1-.05-.27l0-.1-.06-.37-.06-.38A1.1,1.1,0,0,1,21.4,48.21Z" transform="translate(0 0)"/>
    <path class="cls-1" d="M21.4,41.69h0a1.1,1.1,0,0,1,0-.18l.06-.38.06-.37,0-.1a2.56,2.56,0,0,1,.05-.27c0-.07,0-.15,0-.22v.07l-.06.29c0,.15,0,.3-.08.45a2.17,2.17,0,0,1,0,.25Z" transform="translate(0 0)"/>
    <path class="cls-1" d="M21.65,49.73h0c0,.1.05.2.07.3s.07.32.1.47a1.74,1.74,0,0,1,.05.22c.05.16.09.33.13.49h0L21.94,51a2.37,2.37,0,0,1-.09-.36l-.09-.37v0c0-.11,0-.22-.07-.33Z" transform="translate(0 0)"/>
    <path class="cls-1" d="M21.65,40.17h0l0-.15c0-.11.05-.22.07-.33v0l.09-.37a2.37,2.37,0,0,1,.09-.36l.06-.25h0c0,.17-.08.34-.13.5a1.6,1.6,0,0,1-.05.21c0,.16-.07.32-.1.48S21.67,40.07,21.65,40.17Z" transform="translate(0 0)"/>
    <path class="cls-1" d="M22,51.22h0l0,0c0,.15.08.3.13.45a4.74,4.74,0,0,0,.15.5c.05.16.1.32.16.49v0s0,0,0,0-.05-.15-.08-.22,0-.11-.05-.16,0-.07,0-.11l-.06-.2c0-.11-.07-.22-.1-.33s-.06-.23-.1-.35Z" transform="translate(0 0)"/>
    <path class="cls-1" d="M22,38.64l0,0h0l0-.11c0-.12.07-.23.1-.35s.07-.22.1-.33l.06-.2s0-.07,0-.11,0-.11.05-.16.05-.14.08-.22,0,0,0,0v0c-.06.17-.11.33-.16.49a4.58,4.58,0,0,0-.15.49C22.1,38.34,22.06,38.49,22,38.64Z" transform="translate(0 0)"/>
    <path class="cls-1" d="M23.1,35.54c-.09.19-.17.39-.24.58l.18-.45a2.29,2.29,0,0,1,.1-.23l.06-.14a.36.36,0,0,1,0-.09c.05-.13.11-.25.17-.38l0,0a3.54,3.54,0,0,1,.19-.39l-.22.44-.21.47Z" transform="translate(0 0)"/>
    <path class="cls-1" d="M23.41,55.07l.22.44c-.07-.13-.13-.26-.19-.39l0,0c-.06-.13-.12-.25-.17-.38a.36.36,0,0,1,0-.09l-.06-.15a1.47,1.47,0,0,1-.1-.22l-.18-.45c.07.19.15.39.24.58l.1.24Z" transform="translate(0 0)"/>
    <path class="cls-1" d="M24.1,56.42c-.06-.11-.12-.21-.17-.32l-.17-.31c0-.09-.09-.18-.13-.28.07.16.15.31.23.46S24,56.28,24.1,56.42Z" transform="translate(0 0)"/>
    <path class="cls-1" d="M23.86,33.92c-.08.16-.16.31-.23.47,0-.1.09-.19.13-.28l.17-.31a3.24,3.24,0,0,1,.17-.32Z" transform="translate(0 0)"/>
    <path class="cls-1" d="M24.87,57.73c.18.28.36.56.55.84C25.23,58.29,25.05,58,24.87,57.73Z" transform="translate(0 0)"/>
    <path class="cls-1" d="M24.87,32.17c.18-.28.36-.57.55-.84C25.23,31.6,25.05,31.89,24.87,32.17Z" transform="translate(0 0)"/>
    <path class="cls-1" d="M27.78,61.46c-.26-.27-.52-.56-.77-.85C27.26,60.9,27.52,61.19,27.78,61.46Z" transform="translate(0 0)"/>
    <path class="cls-1" d="M27.78,28.44c-.26.27-.52.56-.77.84C27.26,29,27.52,28.71,27.78,28.44Z" transform="translate(0 0)"/>
    <line class="cls-2" x1="71.56" y1="57.59" x2="71.3" y2="57.49"/>
    <g>
      <circle class="cls-1" cx="44.95" cy="6.08" r="5.97"/>
      <path class="cls-1" d="M45,12.17A6.09,6.09,0,1,1,51,6.08,6.09,6.09,0,0,1,45,12.17ZM45,.23a5.86,5.86,0,1,0,5.86,5.85A5.87,5.87,0,0,0,45,.23Z" transform="translate(0 0)"/>
    </g>
    <g>
      <circle class="cls-1" cx="17.47" cy="17.47" r="5.97"/>
      <path class="cls-1" d="M17.47,23.55a6.08,6.08,0,1,1,4.3-1.78A6,6,0,0,1,17.47,23.55Zm0-11.93a5.85,5.85,0,1,0,5.85,5.85,5.77,5.77,0,0,0-1.71-4.14A5.84,5.84,0,0,0,17.47,11.62Z" transform="translate(0 0)"/>
    </g>
    <g>
      <circle class="cls-1" cx="6.08" cy="44.95" r="5.97"/>
      <path class="cls-1" d="M6.08,51A6.08,6.08,0,1,1,12.17,45,6.08,6.08,0,0,1,6.08,51Zm0-11.94A5.86,5.86,0,1,0,11.94,45,5.87,5.87,0,0,0,6.08,39.09Z" transform="translate(0 0)"/>
    </g>
    <g>
      <circle class="cls-1" cx="17.47" cy="72.43" r="5.97"/>
      <path class="cls-1" d="M17.47,78.52a6.09,6.09,0,0,1-4.3-10.39h0a6.08,6.08,0,1,1,4.3,10.39ZM13.33,68.29a5.85,5.85,0,1,0,8.28,0,5.87,5.87,0,0,0-8.28,0Z" transform="translate(0 0)"/>
    </g>
    <g>
      <circle class="cls-1" cx="44.95" cy="83.82" r="5.97"/>
      <path class="cls-1" d="M45,89.9A6.09,6.09,0,1,1,51,83.82,6.09,6.09,0,0,1,45,89.9ZM45,78a5.86,5.86,0,1,0,5.86,5.86A5.87,5.87,0,0,0,45,78Z" transform="translate(0 0)"/>
    </g>
  </g>
</svg>
