<svg id="Слой_1" data-name="Слой 1" xmlns="http://www.w3.org/2000/svg" viewBox="0 0 124.38 92.46">
  <defs>
    <style>
      .cls-1 {
        fill: #fff;
      }

      .cls-2 {
        fill: #ddd;
      }

      .cls-3 {
        fill: none;
      }
    </style>
  </defs>
  <g>
    <g>
      <path class="cls-1" d="M40.81,55.59a11,11,0,0,1-4.33-4.08,11.95,11.95,0,0,1,0-11.84,11,11,0,0,1,4.33-4.08A13,13,0,0,1,47,34.13a13.25,13.25,0,0,1,5.45,1.07,10.43,10.43,0,0,1,4,3.08l-4,3.59a6.52,6.52,0,0,0-5.19-2.58,6.35,6.35,0,0,0-3.2.79A5.4,5.4,0,0,0,42,42.3a7.41,7.41,0,0,0,0,6.58,5.4,5.4,0,0,0,2.17,2.22,6.35,6.35,0,0,0,3.2.79,6.52,6.52,0,0,0,5.19-2.58l4,3.59a10.43,10.43,0,0,1-4,3.08A13.25,13.25,0,0,1,47,57.05,13,13,0,0,1,40.81,55.59Z" transform="translate(-1)"/>
      <path class="cls-1" d="M47,57.17a13.19,13.19,0,0,1-6.27-1.48h0a11.14,11.14,0,0,1-4.38-4.12,12,12,0,0,1,0-12,11.14,11.14,0,0,1,4.38-4.12A13.19,13.19,0,0,1,47,34a13.53,13.53,0,0,1,5.5,1.08,10.74,10.74,0,0,1,4.07,3.12l.07.09L52.53,42,52.46,42a6.44,6.44,0,0,0-5.11-2.54,6.35,6.35,0,0,0-3.14.77,5.36,5.36,0,0,0-2.13,2.17,7.29,7.29,0,0,0,0,6.48A5.36,5.36,0,0,0,44.21,51a6.32,6.32,0,0,0,3.14.77,6.44,6.44,0,0,0,5.11-2.54l.07-.09,4.14,3.74L56.6,53a10.66,10.66,0,0,1-4.07,3.12A13.53,13.53,0,0,1,47,57.17Zm0-22.93a13,13,0,0,0-6.16,1.45,10.84,10.84,0,0,0-4.29,4,11.79,11.79,0,0,0,0,11.72,10.84,10.84,0,0,0,4.29,4h0A13,13,0,0,0,47,56.94a13.34,13.34,0,0,0,5.4-1.06,10.54,10.54,0,0,0,3.93-3l-3.8-3.44a6.77,6.77,0,0,1-8.47,1.73,5.59,5.59,0,0,1-2.21-2.26,7.5,7.5,0,0,1,0-6.7A5.59,5.59,0,0,1,44.09,40a6.77,6.77,0,0,1,8.47,1.73l3.8-3.44a10.54,10.54,0,0,0-3.93-3A13.34,13.34,0,0,0,47,34.24Z" transform="translate(-1)"/>
    </g>
    <g>
      <path class="cls-1" d="M78.18,34.57h6.24v22H78.18Z" transform="translate(-1)"/>
      <path class="cls-1" d="M84.53,56.73H78.07V34.45h6.46Zm-6.24-.23h6V34.68h-6Z" transform="translate(-1)"/>
    </g>
    <g>
      <path class="cls-1" d="M110.3,56.39a12.84,12.84,0,0,1-4.09-1.76l2.05-4.6a13.76,13.76,0,0,0,7.27,2.17c2.4,0,3.59-.59,3.59-1.79a1.48,1.48,0,0,0-1-1.4,17.83,17.83,0,0,0-3.29-1,31.67,31.67,0,0,1-4.16-1.15,7,7,0,0,1-2.86-2,5.3,5.3,0,0,1-1.2-3.65,6.35,6.35,0,0,1,1.1-3.64A7.41,7.41,0,0,1,111,35.07a13.55,13.55,0,0,1,5.37-.94,19.17,19.17,0,0,1,4.28.48,13.23,13.23,0,0,1,3.72,1.44l-1.92,4.63a12.78,12.78,0,0,0-6.11-1.7,5.11,5.11,0,0,0-2.71.55,1.64,1.64,0,0,0-.85,1.43,1.42,1.42,0,0,0,1,1.32,17.93,17.93,0,0,0,3.24.92,29.75,29.75,0,0,1,4.18,1.15,7.24,7.24,0,0,1,2.86,1.95,5.2,5.2,0,0,1,1.21,3.64,6.17,6.17,0,0,1-1.1,3.59,7.51,7.51,0,0,1-3.3,2.56,13.41,13.41,0,0,1-5.36,1A20.48,20.48,0,0,1,110.3,56.39Z" transform="translate(-1)"/>
      <path class="cls-1" d="M115.5,57.17a20.14,20.14,0,0,1-5.22-.67,12.77,12.77,0,0,1-4.13-1.78l-.08,0,2.14-4.81.11.08a13.64,13.64,0,0,0,3.4,1.56,13.18,13.18,0,0,0,3.81.59c2.31,0,3.48-.57,3.48-1.68a1.37,1.37,0,0,0-1-1.3,18.5,18.5,0,0,0-3.27-1A32.62,32.62,0,0,1,110.61,47a7,7,0,0,1-2.91-2,5.45,5.45,0,0,1-1.23-3.72,6.45,6.45,0,0,1,1.13-3.71,7.44,7.44,0,0,1,3.34-2.6,13.57,13.57,0,0,1,5.41-1,19.51,19.51,0,0,1,4.31.49A13.32,13.32,0,0,1,124.41,36l.09,0,0,.09-2,4.75-.11-.06a12.8,12.8,0,0,0-6.06-1.69,5.11,5.11,0,0,0-2.65.53,1.55,1.55,0,0,0-.79,1.34,1.31,1.31,0,0,0,.93,1.22,18.37,18.37,0,0,0,3.23.9,30.81,30.81,0,0,1,4.19,1.16,7.37,7.37,0,0,1,2.91,2,5.37,5.37,0,0,1,1.24,3.72,6.35,6.35,0,0,1-1.12,3.65,7.79,7.79,0,0,1-3.36,2.61A13.64,13.64,0,0,1,115.5,57.17Zm-9.15-2.58a12.89,12.89,0,0,0,4,1.69h0a20.24,20.24,0,0,0,5.17.66,13.37,13.37,0,0,0,5.31-.95,7.46,7.46,0,0,0,3.26-2.53,6.1,6.1,0,0,0,1.08-3.52A5.13,5.13,0,0,0,124,46.38a7.06,7.06,0,0,0-2.82-1.93A30.54,30.54,0,0,0,117,43.31a19.62,19.62,0,0,1-3.27-.92A1.53,1.53,0,0,1,112.65,41a1.76,1.76,0,0,1,.9-1.53,5.21,5.21,0,0,1,2.77-.57,12.91,12.91,0,0,1,6.05,1.66l1.84-4.42a13,13,0,0,0-3.6-1.37,18.5,18.5,0,0,0-4.26-.49,13.51,13.51,0,0,0-5.32.94,7.12,7.12,0,0,0-3.24,2.52,6.25,6.25,0,0,0-1.09,3.58,5.24,5.24,0,0,0,1.17,3.57,6.85,6.85,0,0,0,2.82,1.94,30.76,30.76,0,0,0,4.14,1.14,19.93,19.93,0,0,1,3.32,1,1.61,1.61,0,0,1,1.09,1.51c0,1.27-1.25,1.91-3.71,1.91a12.9,12.9,0,0,1-3.87-.61,13.37,13.37,0,0,1-3.35-1.51Z" transform="translate(-1)"/>
    </g>
  </g>
  <circle class="cls-1" cx="46.23" cy="5.97" r="5.97"/>
  <circle class="cls-1" cx="17.76" cy="17.76" r="5.97"/>
  <circle class="cls-1" cx="5.97" cy="46.23" r="5.97"/>
  <circle class="cls-1" cx="17.76" cy="74.7" r="5.97"/>
  <circle class="cls-1" cx="46.23" cy="86.49" r="5.97"/>
  <path class="cls-2" d="M74.75,59A30.31,30.31,0,1,1,74,32L68.5,34.81l-5.41,2.83a18,18,0,1,0,.3,16.61L69,56.59Z" transform="translate(-1)"/>
  <path class="cls-1" d="M69,56.59a24.13,24.13,0,1,1-.53-21.78l-5.41,2.83a18,18,0,1,0,.3,16.61Z" transform="translate(-1)"/>
  <polyline class="cls-3" points="72.98 31.95 67.5 34.81 62.09 37.64 62.01 37.68"/>
  <polyline class="cls-3" points="73.84 59 73.75 58.96 68.03 56.59 62.39 54.25 62.31 54.22"/>
</svg>
