<svg id="Слой_1" data-name="Слой 1" xmlns="http://www.w3.org/2000/svg" viewBox="0 0 119.09 82.54">
  <defs>
    <style>
      .cls-1 {
        fill: #fff;
      }

      .cls-2 {
        fill: #ddd;
      }
    </style>
  </defs>
  <g>
    <g>
      <path class="cls-1" d="M34.53,51a11,11,0,0,1-4.33-4.08,11.88,11.88,0,0,1,0-11.84A11,11,0,0,1,34.53,31a13,13,0,0,1,6.22-1.46,13.29,13.29,0,0,1,5.45,1.07,10.51,10.51,0,0,1,4,3.08l-4,3.59a6.53,6.53,0,0,0-5.2-2.58,6.34,6.34,0,0,0-3.19.79,5.42,5.42,0,0,0-2.18,2.22,7.41,7.41,0,0,0,0,6.58,5.42,5.42,0,0,0,2.18,2.22,6.34,6.34,0,0,0,3.19.79,6.53,6.53,0,0,0,5.2-2.58l4,3.59a10.51,10.51,0,0,1-4,3.08,13.29,13.29,0,0,1-5.45,1.08A13,13,0,0,1,34.53,51Z"/>
      <path class="cls-1" d="M40.75,52.6a13.26,13.26,0,0,1-6.28-1.48h0A11.18,11.18,0,0,1,30.1,47a12,12,0,0,1,0-12,11.18,11.18,0,0,1,4.37-4.12,13.26,13.26,0,0,1,6.28-1.48,13.61,13.61,0,0,1,5.49,1.08,10.69,10.69,0,0,1,4.08,3.12l.06.09-4.13,3.74-.08-.09a6.44,6.44,0,0,0-5.11-2.54,6.35,6.35,0,0,0-3.14.77,5.43,5.43,0,0,0-2.13,2.17,7.37,7.37,0,0,0,0,6.48,5.43,5.43,0,0,0,2.13,2.17,6.25,6.25,0,0,0,3.14.77,6.44,6.44,0,0,0,5.11-2.54l.08-.09,4.13,3.74-.06.09a10.69,10.69,0,0,1-4.08,3.12A13.45,13.45,0,0,1,40.75,52.6Zm0-22.93a13,13,0,0,0-6.17,1.45,10.82,10.82,0,0,0-4.28,4,11.79,11.79,0,0,0,0,11.72,10.82,10.82,0,0,0,4.28,4h0a13,13,0,0,0,6.17,1.45,13.34,13.34,0,0,0,5.4-1.06,10.43,10.43,0,0,0,3.92-3l-3.8-3.44a6.75,6.75,0,0,1-8.46,1.73,5.62,5.62,0,0,1-2.22-2.26,7.58,7.58,0,0,1,0-6.7,5.62,5.62,0,0,1,2.22-2.26,6.75,6.75,0,0,1,8.46,1.73l3.8-3.44a10.43,10.43,0,0,0-3.92-3A13.34,13.34,0,0,0,40.75,29.67Z"/>
    </g>
    <g>
      <path class="cls-1" d="M71.9,30h6.23V52H71.9Z"/>
      <path class="cls-1" d="M78.25,52.16H71.78V29.88h6.47ZM72,51.93h6V30.11H72Z"/>
    </g>
    <g>
      <path class="cls-1" d="M104,51.82a12.84,12.84,0,0,1-4.09-1.76l2-4.6A13.29,13.29,0,0,0,105.41,47a13,13,0,0,0,3.84.59c2.39,0,3.59-.59,3.59-1.79a1.48,1.48,0,0,0-1-1.4,18,18,0,0,0-3.3-1,31.92,31.92,0,0,1-4.15-1.15,7,7,0,0,1-2.87-2,5.3,5.3,0,0,1-1.2-3.65,6.28,6.28,0,0,1,1.11-3.64,7.36,7.36,0,0,1,3.29-2.57,13.55,13.55,0,0,1,5.37-.94,19.23,19.23,0,0,1,4.28.48,13.23,13.23,0,0,1,3.72,1.44l-1.92,4.63a12.78,12.78,0,0,0-6.11-1.7,5.09,5.09,0,0,0-2.71.55,1.64,1.64,0,0,0-.85,1.43,1.41,1.41,0,0,0,1,1.32,18.35,18.35,0,0,0,3.25.92,29.19,29.19,0,0,1,4.17,1.15,7.27,7.27,0,0,1,2.87,1.95A5.2,5.2,0,0,1,119,45.37a6.24,6.24,0,0,1-1.1,3.59,7.54,7.54,0,0,1-3.31,2.56,13.35,13.35,0,0,1-5.35,1A20.43,20.43,0,0,1,104,51.82Z"/>
      <path class="cls-1" d="M109.22,52.6a20.22,20.22,0,0,1-5.23-.67,13,13,0,0,1-4.13-1.78l-.08,0,2.14-4.81.12.08a13.47,13.47,0,0,0,3.4,1.56,13.08,13.08,0,0,0,3.81.59c2.31,0,3.47-.57,3.47-1.68a1.37,1.37,0,0,0-1-1.3,18.5,18.5,0,0,0-3.27-.95,32.31,32.31,0,0,1-4.17-1.15,7.15,7.15,0,0,1-2.91-2,5.43,5.43,0,0,1-1.23-3.73A6.51,6.51,0,0,1,101.31,33a7.55,7.55,0,0,1,3.34-2.6,13.62,13.62,0,0,1,5.42-1,19.51,19.51,0,0,1,4.31.49,13.57,13.57,0,0,1,3.75,1.45l.08.05,0,.09-2,4.75-.11-.06a12.77,12.77,0,0,0-6-1.69,5.09,5.09,0,0,0-2.65.53,1.54,1.54,0,0,0-.8,1.34,1.32,1.32,0,0,0,.94,1.22,18.2,18.2,0,0,0,3.22.9,30.81,30.81,0,0,1,4.19,1.16,7.23,7.23,0,0,1,2.91,2,5.33,5.33,0,0,1,1.24,3.72A6.27,6.27,0,0,1,118,49a7.63,7.63,0,0,1-3.35,2.61A13.64,13.64,0,0,1,109.22,52.6ZM100.07,50a12.68,12.68,0,0,0,4,1.69h0a20.19,20.19,0,0,0,5.17.66,13.41,13.41,0,0,0,5.31-.95,7.43,7.43,0,0,0,3.25-2.53,6.08,6.08,0,0,0,1.09-3.52,5.09,5.09,0,0,0-1.19-3.56,7.06,7.06,0,0,0-2.82-1.93,30.54,30.54,0,0,0-4.16-1.14,18.52,18.52,0,0,1-3.26-.92,1.52,1.52,0,0,1-1.08-1.43,1.79,1.79,0,0,1,.9-1.53,5.27,5.27,0,0,1,2.78-.57,12.94,12.94,0,0,1,6,1.66l1.83-4.42a12.79,12.79,0,0,0-3.6-1.37,18.42,18.42,0,0,0-4.25-.49,13.53,13.53,0,0,0-5.33.94,7.23,7.23,0,0,0-3.24,2.52,6.24,6.24,0,0,0-1.08,3.58,5.19,5.19,0,0,0,1.17,3.57,6.78,6.78,0,0,0,2.82,1.94,31.72,31.72,0,0,0,4.14,1.15,19,19,0,0,1,3.31,1A1.6,1.6,0,0,1,113,45.84c0,1.27-1.24,1.91-3.7,1.91a13.27,13.27,0,0,1-3.88-.6A13.92,13.92,0,0,1,102,45.63Z"/>
    </g>
  </g>
  <g>
    <path class="cls-2" d="M64.91,61.73l7.63,6.48a41.27,41.27,0,1,1,4.33-47.83l-8.66,5a31.28,31.28,0,1,0-3.3,36.34Z"/>
    <path class="cls-1" d="M55,53.32l9.9,8.41a31.26,31.26,0,1,1,3.3-36.34L57,31.88A18.28,18.28,0,1,0,55,53.32Z"/>
  </g>
</svg>
