<svg id="Слой_1" data-name="Слой 1" xmlns="http://www.w3.org/2000/svg" xmlns:xlink="http://www.w3.org/1999/xlink" viewBox="0 0 4952.13 1002.59">
  <defs>
    <style>
      .cls-1 {
        fill: none;
      }

      .cls-2 {
        fill: #3cc;
      }

      .cls-3 {
        clip-path: url(#clip-path);
      }

      .cls-4 {
        fill: #fff;
      }
    </style>
    <clipPath id="clip-path" transform="translate(1001.06 1.06)">
      <rect class="cls-1" width="2000" height="1000"/>
    </clipPath>
  </defs>
  <g>
    <rect class="cls-2" x="1001.06" y="1.06" width="2000" height="1000"/>
    <g class="cls-3">
      <g>
        <path class="cls-4" d="M1000.09,1001.53h-.18l-1.16-.69C991.06,991.17,8.86,11-1.06,1.06L1.06-1.06c40,39.93,965.74,963.78,999.27,999.21,34.95-25.78,988.89-989.39,998.6-999.21l2.14,2.12c-2.48,2.5-250.54,253.09-496.53,500.34-144.48,145.23-260,260.9-343.31,343.81-49.47,49.23-88,87.31-114.52,113.18C1004.51,999.55,1001.29,1001.53,1000.09,1001.53Zm1-2.6.2.24A1.59,1.59,0,0,0,1001.05,998.93Z" transform="translate(1001.06 1.06)"/>
        <path class="cls-4" d="M950.09,1001.53h-.18l-1.16-.69C941.06,991.17-41.14,11-51.06,1.06l2.12-2.12c40,39.93,965.74,963.78,999.27,999.21,34.95-25.78,988.89-989.39,998.6-999.21l2.14,2.12c-2.48,2.5-250.54,253.09-496.53,500.34-144.48,145.23-260,260.9-343.31,343.81-49.47,49.23-88,87.31-114.52,113.18C954.51,999.55,951.29,1001.53,950.09,1001.53Zm1-2.6.2.24A1.59,1.59,0,0,0,951.05,998.93Z" transform="translate(1001.06 1.06)"/>
        <path class="cls-4" d="M900.09,1001.53h-.18l-1.16-.69C891.06,991.17-91.14,11-101.06,1.06l2.12-2.12c40,39.93,965.74,963.78,999.27,999.21,34.95-25.78,988.89-989.39,998.6-999.21l2.14,2.12c-2.48,2.5-250.54,253.09-496.53,500.34-144.48,145.23-260,260.9-343.31,343.81-49.47,49.23-88,87.31-114.52,113.18C904.51,999.55,901.29,1001.53,900.09,1001.53Zm1-2.6.2.24A1.59,1.59,0,0,0,901.05,998.93Z" transform="translate(1001.06 1.06)"/>
        <path class="cls-4" d="M850.09,1001.53h-.18l-1.16-.69C841.06,991.17-141.14,11-151.06,1.06l2.12-2.12c40,39.93,965.74,963.78,999.27,999.21,34.95-25.78,988.89-989.39,998.6-999.21l2.14,2.12c-2.48,2.5-250.54,253.09-496.53,500.34-144.48,145.23-260,260.9-343.31,343.81-49.47,49.23-88,87.31-114.52,113.18C854.51,999.55,851.29,1001.53,850.09,1001.53Zm1-2.6.2.24A1.59,1.59,0,0,0,851.05,998.93Z" transform="translate(1001.06 1.06)"/>
        <path class="cls-4" d="M800.09,1001.53h-.18l-1.16-.69C791.06,991.17-191.14,11-201.06,1.06l2.12-2.12c40,39.93,965.74,963.78,999.27,999.21,34.95-25.78,988.89-989.39,998.6-999.21l2.14,2.12c-2.48,2.5-250.54,253.09-496.53,500.34-144.48,145.23-260,260.9-343.31,343.81-49.47,49.23-88,87.31-114.52,113.18C804.51,999.55,801.29,1001.53,800.09,1001.53Zm1-2.6.2.24A1.59,1.59,0,0,0,801.05,998.93Z" transform="translate(1001.06 1.06)"/>
        <path class="cls-4" d="M750.09,1001.53h-.18l-1.16-.69C741.06,991.17-241.14,11-251.06,1.06l2.12-2.12c40,39.93,965.74,963.78,999.27,999.21,34.95-25.78,988.89-989.39,998.6-999.21l2.14,2.12c-2.48,2.5-250.54,253.09-496.53,500.34-144.48,145.23-260,260.9-343.31,343.81-49.47,49.23-88,87.31-114.52,113.18C754.51,999.55,751.29,1001.53,750.09,1001.53Zm1-2.6.2.24A1.59,1.59,0,0,0,751.05,998.93Z" transform="translate(1001.06 1.06)"/>
        <path class="cls-4" d="M700.09,1001.53h-.18l-1.16-.69C691.06,991.17-291.14,11-301.06,1.06l2.12-2.12c40,39.93,965.74,963.78,999.27,999.21,34.95-25.78,988.89-989.39,998.6-999.21l2.14,2.12c-2.48,2.5-250.54,253.09-496.53,500.34-144.48,145.23-260,260.9-343.31,343.81-49.47,49.23-88,87.31-114.52,113.18C704.51,999.55,701.29,1001.53,700.09,1001.53Zm1-2.6.2.24A1.59,1.59,0,0,0,701.05,998.93Z" transform="translate(1001.06 1.06)"/>
        <path class="cls-4" d="M650.09,1001.53h-.18l-1.16-.69C641.06,991.17-341.14,11-351.06,1.06l2.12-2.12c40,39.93,965.74,963.78,999.27,999.21,34.95-25.78,988.89-989.39,998.6-999.21l2.14,2.12c-2.48,2.5-250.54,253.09-496.53,500.34-144.48,145.23-260,260.9-343.31,343.81-49.47,49.23-88,87.31-114.52,113.18C654.51,999.55,651.29,1001.53,650.09,1001.53Zm1-2.6.2.24A1.59,1.59,0,0,0,651.05,998.93Z" transform="translate(1001.06 1.06)"/>
        <path class="cls-4" d="M600.09,1001.53h-.18l-1.16-.69C591.06,991.17-391.14,11-401.06,1.06l2.12-2.12c40,39.93,965.74,963.78,999.27,999.21,34.95-25.78,988.89-989.39,998.6-999.21l2.14,2.12c-2.48,2.5-250.54,253.09-496.53,500.34-144.48,145.23-260,260.9-343.31,343.81-49.47,49.23-88,87.31-114.52,113.18C604.51,999.55,601.29,1001.53,600.09,1001.53Zm1-2.6.2.24A1.59,1.59,0,0,0,601.05,998.93Z" transform="translate(1001.06 1.06)"/>
        <path class="cls-4" d="M550.09,1001.53h-.18l-1.16-.69C541.06,991.17-441.14,11-451.06,1.06l2.12-2.12c40,39.93,965.74,963.78,999.27,999.21,34.95-25.78,988.89-989.39,998.6-999.21l2.14,2.12c-2.48,2.5-250.54,253.09-496.53,500.34-144.48,145.23-260,260.9-343.31,343.81-49.47,49.23-88,87.31-114.52,113.18C554.51,999.55,551.29,1001.53,550.09,1001.53Zm1-2.6.2.24A1.59,1.59,0,0,0,551.05,998.93Z" transform="translate(1001.06 1.06)"/>
        <path class="cls-4" d="M500.09,1001.53h-.18l-1.16-.69C491.06,991.17-491.14,11-501.06,1.06l2.12-2.12c40,39.93,965.74,963.78,999.27,999.21,34.95-25.78,988.89-989.39,998.6-999.21l2.14,2.12c-2.48,2.5-250.54,253.09-496.53,500.34-144.48,145.23-260,260.9-343.31,343.81-49.47,49.23-88,87.31-114.52,113.18C504.51,999.55,501.29,1001.53,500.09,1001.53Zm1-2.6.2.24A1.59,1.59,0,0,0,501.05,998.93Z" transform="translate(1001.06 1.06)"/>
        <path class="cls-4" d="M450.09,1001.53h-.18l-1.16-.69C441.06,991.17-541.14,11-551.06,1.06l2.12-2.12c40,39.93,965.74,963.78,999.27,999.21,34.95-25.78,988.89-989.39,998.6-999.21l2.14,2.12c-2.48,2.5-250.54,253.09-496.53,500.34-144.48,145.23-260,260.9-343.31,343.81-49.47,49.23-88,87.31-114.52,113.18C454.51,999.55,451.29,1001.53,450.09,1001.53Zm1-2.6.2.24A1.59,1.59,0,0,0,451.05,998.93Z" transform="translate(1001.06 1.06)"/>
        <path class="cls-4" d="M400.09,1001.53h-.18l-1.16-.69C391.06,991.17-591.14,11-601.06,1.06l2.12-2.12c40,39.93,965.74,963.78,999.27,999.21,34.95-25.78,988.89-989.39,998.6-999.21l2.14,2.12c-2.48,2.5-250.54,253.09-496.53,500.34-144.48,145.23-260,260.9-343.31,343.81-49.47,49.23-88,87.31-114.52,113.18C404.51,999.55,401.29,1001.53,400.09,1001.53Zm1-2.6.2.24A1.59,1.59,0,0,0,401.05,998.93Z" transform="translate(1001.06 1.06)"/>
        <path class="cls-4" d="M350.09,1001.53h-.18l-1.16-.69C341.06,991.17-641.14,11-651.06,1.06l2.12-2.12c40,39.93,965.74,963.78,999.27,999.21,34.95-25.78,988.89-989.39,998.6-999.21l2.14,2.12c-2.48,2.5-250.54,253.09-496.53,500.34-144.48,145.23-260,260.9-343.31,343.81-49.47,49.23-88,87.31-114.52,113.18C354.51,999.55,351.29,1001.53,350.09,1001.53Zm1-2.6.2.24A1.59,1.59,0,0,0,351.05,998.93Z" transform="translate(1001.06 1.06)"/>
        <path class="cls-4" d="M300.09,1001.53h-.18l-1.16-.69C291.06,991.17-691.14,11-701.06,1.06l2.12-2.12c40,39.93,965.74,963.78,999.27,999.21,34.95-25.78,988.89-989.39,998.6-999.21l2.14,2.12c-2.48,2.5-250.54,253.09-496.53,500.34-144.48,145.23-260,260.9-343.31,343.81-49.47,49.23-88,87.31-114.52,113.18C304.51,999.55,301.29,1001.53,300.09,1001.53Zm1-2.6.2.24A1.59,1.59,0,0,0,301.05,998.93Z" transform="translate(1001.06 1.06)"/>
        <path class="cls-4" d="M250.09,1001.53h-.18l-1.16-.69C241.06,991.17-741.14,11-751.06,1.06l2.12-2.12c40,39.93,965.74,963.78,999.27,999.21,34.95-25.78,988.89-989.39,998.6-999.21l2.14,2.12c-2.48,2.5-250.54,253.09-496.53,500.34-144.48,145.23-260,260.9-343.31,343.81-49.47,49.23-88,87.31-114.52,113.18C254.51,999.55,251.29,1001.53,250.09,1001.53Zm1-2.6.2.24A1.59,1.59,0,0,0,251.05,998.93Z" transform="translate(1001.06 1.06)"/>
        <path class="cls-4" d="M200.09,1001.53h-.18l-1.16-.69C191.06,991.17-791.14,11-801.06,1.06l2.12-2.12c40,39.93,965.74,963.78,999.27,999.21,34.95-25.78,988.89-989.39,998.6-999.21l2.14,2.12c-2.48,2.5-250.54,253.09-496.53,500.34-144.48,145.23-260,260.9-343.31,343.81-49.47,49.23-88,87.31-114.52,113.18C204.51,999.55,201.29,1001.53,200.09,1001.53Zm1-2.6.2.24A1.59,1.59,0,0,0,201.05,998.93Z" transform="translate(1001.06 1.06)"/>
        <path class="cls-4" d="M150.09,1001.53h-.18l-1.16-.69C141.06,991.17-841.14,11-851.06,1.06l2.12-2.12c40,39.93,965.74,963.78,999.27,999.21,34.95-25.78,988.89-989.39,998.6-999.21l2.14,2.12c-2.48,2.5-250.54,253.09-496.53,500.34-144.48,145.23-260,260.9-343.31,343.81-49.47,49.23-88,87.31-114.52,113.18C154.51,999.55,151.29,1001.53,150.09,1001.53Zm1-2.6.2.24A1.59,1.59,0,0,0,151.05,998.93Z" transform="translate(1001.06 1.06)"/>
        <path class="cls-4" d="M100.09,1001.53h-.18l-1.16-.69C91.06,991.17-891.14,11-901.06,1.06l2.12-2.12c40,39.93,965.74,963.78,999.27,999.21,35-25.78,988.89-989.39,998.6-999.21l2.14,2.12c-2.48,2.5-250.54,253.09-496.53,500.34-144.48,145.23-260,260.9-343.31,343.81-49.47,49.23-88,87.31-114.52,113.18C104.51,999.55,101.29,1001.53,100.09,1001.53Zm1-2.6.2.24A1.59,1.59,0,0,0,101.05,998.93Z" transform="translate(1001.06 1.06)"/>
        <path class="cls-4" d="M50.09,1001.53h-.18l-1.16-.69C41.06,991.17-941.14,11-951.06,1.06l2.12-2.12c40,39.93,965.74,963.78,999.27,999.21,35-25.78,988.89-989.39,998.6-999.21l2.14,2.12c-2.48,2.5-250.54,253.09-496.53,500.34-144.48,145.23-260,260.9-343.31,343.81-49.47,49.23-88,87.31-114.52,113.18C54.51,999.55,51.29,1001.53,50.09,1001.53Zm1-2.6.2.24A1.59,1.59,0,0,0,51.05,998.93Z" transform="translate(1001.06 1.06)"/>
        <path class="cls-4" d="M.09,1001.53H-.09l-1.16-.69C-8.94,991.17-991.14,11-1001.06,1.06l2.12-2.12C-958.92,38.87-33.2,962.72.33,998.15c35-25.78,988.89-989.39,998.6-999.21l2.14,2.12c-2.48,2.5-250.54,253.09-496.53,500.34-144.48,145.23-260,260.9-343.31,343.81-49.47,49.23-88,87.31-114.52,113.18C4.51,999.55,1.29,1001.53.09,1001.53Zm1-2.6.2.24A1.59,1.59,0,0,0,1.05,998.93Z" transform="translate(1001.06 1.06)"/>
        <path class="cls-4" d="M1050.09,1001.53h-.18l-1.16-.69C1041.06,991.17,58.86,11,48.94,1.06l2.12-2.12c40,39.93,965.74,963.78,999.27,999.21,35-25.78,988.89-989.39,998.6-999.21l2.14,2.12c-2.48,2.5-250.54,253.09-496.53,500.34-144.48,145.23-260,260.9-343.31,343.81-49.47,49.23-88,87.31-114.52,113.18C1054.51,999.55,1051.29,1001.53,1050.09,1001.53Zm1-2.6.2.24A1.59,1.59,0,0,0,1051.05,998.93Z" transform="translate(1001.06 1.06)"/>
        <path class="cls-4" d="M1100.09,1001.53h-.18l-1.16-.69C1091.06,991.17,108.86,11,98.94,1.06l2.12-2.12c40,39.93,965.74,963.78,999.27,999.21,35-25.78,988.89-989.39,998.6-999.21l2.14,2.12c-2.48,2.5-250.54,253.09-496.53,500.34-144.48,145.23-260,260.9-343.31,343.81-49.47,49.23-88,87.31-114.52,113.18C1104.51,999.55,1101.29,1001.53,1100.09,1001.53Zm1-2.6.2.24A1.59,1.59,0,0,0,1101.05,998.93Z" transform="translate(1001.06 1.06)"/>
        <path class="cls-4" d="M1150.09,1001.53h-.18l-1.16-.69C1141.06,991.17,158.86,11,148.94,1.06l2.12-2.12c40,39.93,965.74,963.78,999.27,999.21,35-25.78,988.89-989.39,998.6-999.21l2.14,2.12c-2.48,2.5-250.54,253.09-496.53,500.34-144.48,145.23-260,260.9-343.31,343.81-49.47,49.23-88,87.31-114.52,113.18C1154.51,999.55,1151.29,1001.53,1150.09,1001.53Zm1-2.6.2.24A1.59,1.59,0,0,0,1151.05,998.93Z" transform="translate(1001.06 1.06)"/>
        <path class="cls-4" d="M1200.09,1001.53h-.18l-1.16-.69C1191.06,991.17,208.86,11,198.94,1.06l2.12-2.12c40,39.93,965.74,963.78,999.27,999.21,35-25.78,988.89-989.39,998.6-999.21l2.14,2.12c-2.48,2.5-250.54,253.09-496.53,500.34-144.48,145.23-260,260.9-343.31,343.81-49.47,49.23-88,87.31-114.52,113.18C1204.51,999.55,1201.29,1001.53,1200.09,1001.53Zm1-2.6.2.24A1.59,1.59,0,0,0,1201.05,998.93Z" transform="translate(1001.06 1.06)"/>
        <path class="cls-4" d="M1250.09,1001.53h-.18l-1.16-.69C1241.06,991.17,258.86,11,248.94,1.06l2.12-2.12c40,39.93,965.74,963.78,999.27,999.21,35-25.78,988.89-989.39,998.6-999.21l2.14,2.12c-2.48,2.5-250.54,253.09-496.53,500.34-144.48,145.23-260,260.9-343.31,343.81-49.47,49.23-88,87.31-114.52,113.18C1254.51,999.55,1251.29,1001.53,1250.09,1001.53Zm1-2.6.2.24A1.59,1.59,0,0,0,1251.05,998.93Z" transform="translate(1001.06 1.06)"/>
        <path class="cls-4" d="M1300.09,1001.53h-.18l-1.16-.69C1291.06,991.17,308.86,11,298.94,1.06l2.12-2.12c40,39.93,965.74,963.78,999.27,999.21,35-25.78,988.89-989.39,998.6-999.21l2.14,2.12c-2.48,2.5-250.54,253.09-496.53,500.34-144.48,145.23-260,260.9-343.31,343.81-49.47,49.23-88,87.31-114.52,113.18C1304.51,999.55,1301.29,1001.53,1300.09,1001.53Zm1-2.6.2.24A1.59,1.59,0,0,0,1301.05,998.93Z" transform="translate(1001.06 1.06)"/>
        <path class="cls-4" d="M1350.09,1001.53h-.18l-1.16-.69C1341.06,991.17,358.86,11,348.94,1.06l2.12-2.12c40,39.93,965.74,963.78,999.27,999.21,35-25.78,988.89-989.39,998.6-999.21l2.14,2.12c-2.48,2.5-250.54,253.09-496.53,500.34-144.48,145.23-260,260.9-343.31,343.81-49.47,49.23-88,87.31-114.52,113.18C1354.51,999.55,1351.29,1001.53,1350.09,1001.53Zm1-2.6.2.24A1.59,1.59,0,0,0,1351.05,998.93Z" transform="translate(1001.06 1.06)"/>
        <path class="cls-4" d="M1400.09,1001.53h-.18l-1.16-.69C1391.06,991.17,408.86,11,398.94,1.06l2.12-2.12c40,39.93,965.74,963.78,999.27,999.21,35-25.78,988.89-989.39,998.6-999.21l2.14,2.12c-2.48,2.5-250.54,253.09-496.53,500.34-144.48,145.23-260,260.9-343.31,343.81-49.47,49.23-88,87.31-114.52,113.18C1404.51,999.55,1401.29,1001.53,1400.09,1001.53Zm1-2.6.2.24A1.59,1.59,0,0,0,1401.05,998.93Z" transform="translate(1001.06 1.06)"/>
        <path class="cls-4" d="M1450.09,1001.53h-.18l-1.16-.69C1441.06,991.17,458.86,11,448.94,1.06l2.12-2.12c40,39.93,965.74,963.78,999.27,999.21,35-25.78,988.89-989.39,998.6-999.21l2.14,2.12c-2.48,2.5-250.54,253.09-496.53,500.34-144.48,145.23-260,260.9-343.31,343.81-49.47,49.23-88,87.31-114.52,113.18C1454.51,999.55,1451.29,1001.53,1450.09,1001.53Zm1-2.6.2.24A1.59,1.59,0,0,0,1451.05,998.93Z" transform="translate(1001.06 1.06)"/>
        <path class="cls-4" d="M1500.09,1001.53h-.18l-1.16-.69C1491.06,991.17,508.86,11,498.94,1.06l2.12-2.12c40,39.93,965.74,963.78,999.27,999.21,35-25.78,988.89-989.39,998.6-999.21l2.14,2.12c-2.48,2.5-250.54,253.09-496.53,500.34-144.48,145.23-260,260.9-343.31,343.81-49.47,49.23-88,87.31-114.52,113.18C1504.51,999.55,1501.29,1001.53,1500.09,1001.53Zm1-2.6.2.24A1.59,1.59,0,0,0,1501.05,998.93Z" transform="translate(1001.06 1.06)"/>
        <path class="cls-4" d="M1550.09,1001.53h-.18l-1.16-.69C1541.06,991.17,558.86,11,548.94,1.06l2.12-2.12c40,39.93,965.74,963.78,999.27,999.21,35-25.78,988.89-989.39,998.6-999.21l2.14,2.12c-2.48,2.5-250.54,253.09-496.53,500.34-144.48,145.23-260,260.9-343.31,343.81-49.47,49.23-88,87.31-114.52,113.18C1554.51,999.55,1551.29,1001.53,1550.09,1001.53Zm1-2.6.2.24A1.59,1.59,0,0,0,1551.05,998.93Z" transform="translate(1001.06 1.06)"/>
        <path class="cls-4" d="M1600.09,1001.53h-.18l-1.16-.69C1591.06,991.17,608.86,11,598.94,1.06l2.12-2.12c40,39.93,965.74,963.78,999.27,999.21,35-25.78,988.89-989.39,998.6-999.21l2.14,2.12c-2.48,2.5-250.54,253.09-496.53,500.34-144.48,145.23-260,260.9-343.31,343.81-49.47,49.23-88,87.31-114.52,113.18C1604.51,999.55,1601.29,1001.53,1600.09,1001.53Zm1-2.6.2.24A1.59,1.59,0,0,0,1601.05,998.93Z" transform="translate(1001.06 1.06)"/>
        <path class="cls-4" d="M1650.09,1001.53h-.18l-1.16-.69C1641.06,991.17,658.86,11,648.94,1.06l2.12-2.12c40,39.93,965.74,963.78,999.27,999.21,35-25.78,988.89-989.39,998.6-999.21l2.14,2.12c-2.48,2.5-250.54,253.09-496.53,500.34-144.48,145.23-260,260.9-343.31,343.81-49.47,49.23-88,87.31-114.52,113.18C1654.51,999.55,1651.29,1001.53,1650.09,1001.53Zm1-2.6.2.24A1.59,1.59,0,0,0,1651.05,998.93Z" transform="translate(1001.06 1.06)"/>
        <path class="cls-4" d="M1700.09,1001.53h-.18l-1.16-.69C1691.06,991.17,708.86,11,698.94,1.06l2.12-2.12c40,39.93,965.74,963.78,999.27,999.21,35-25.78,988.89-989.39,998.6-999.21l2.14,2.12c-2.48,2.5-250.54,253.09-496.53,500.34-144.48,145.23-260,260.9-343.31,343.81-49.47,49.23-88,87.31-114.52,113.18C1704.51,999.55,1701.29,1001.53,1700.09,1001.53Zm1-2.6.2.24A1.59,1.59,0,0,0,1701.05,998.93Z" transform="translate(1001.06 1.06)"/>
        <path class="cls-4" d="M1750.09,1001.53h-.18l-1.16-.69C1741.06,991.17,758.86,11,748.94,1.06l2.12-2.12c40,39.93,965.74,963.78,999.27,999.21,35-25.78,988.89-989.39,998.6-999.21l2.14,2.12c-2.48,2.5-250.54,253.09-496.53,500.34-144.48,145.23-260,260.9-343.31,343.81-49.47,49.23-88,87.31-114.52,113.18C1754.51,999.55,1751.29,1001.53,1750.09,1001.53Zm1-2.6.2.24A1.59,1.59,0,0,0,1751.05,998.93Z" transform="translate(1001.06 1.06)"/>
        <path class="cls-4" d="M1800.09,1001.53h-.18l-1.16-.69C1791.06,991.17,808.86,11,798.94,1.06l2.12-2.12c40,39.93,965.74,963.78,999.27,999.21,35-25.78,988.89-989.39,998.6-999.21l2.14,2.12c-2.48,2.5-250.54,253.09-496.53,500.34-144.48,145.23-260,260.9-343.31,343.81-49.47,49.23-88,87.31-114.52,113.18C1804.51,999.55,1801.29,1001.53,1800.09,1001.53Zm1-2.6.2.24A1.59,1.59,0,0,0,1801.05,998.93Z" transform="translate(1001.06 1.06)"/>
        <path class="cls-4" d="M1850.09,1001.53h-.18l-1.16-.69C1841.06,991.17,858.86,11,848.94,1.06l2.12-2.12c40,39.93,965.74,963.78,999.27,999.21,35-25.78,988.89-989.39,998.6-999.21l2.14,2.12c-2.48,2.5-250.54,253.09-496.53,500.34-144.48,145.23-260,260.9-343.31,343.81-49.47,49.23-88,87.31-114.52,113.18C1854.51,999.55,1851.29,1001.53,1850.09,1001.53Zm1-2.6.2.24A1.59,1.59,0,0,0,1851.05,998.93Z" transform="translate(1001.06 1.06)"/>
        <path class="cls-4" d="M1900.09,1001.53h-.18l-1.16-.69C1891.06,991.17,908.86,11,898.94,1.06l2.12-2.12c40,39.93,965.74,963.78,999.27,999.21,35-25.78,988.89-989.39,998.6-999.21l2.14,2.12c-2.48,2.5-250.54,253.09-496.53,500.34-144.48,145.23-260,260.9-343.31,343.81-49.47,49.23-88,87.31-114.52,113.18C1904.51,999.55,1901.29,1001.53,1900.09,1001.53Zm1-2.6.2.24A1.59,1.59,0,0,0,1901.05,998.93Z" transform="translate(1001.06 1.06)"/>
        <path class="cls-4" d="M1950.09,1001.53h-.18l-1.16-.69C1941.06,991.17,958.86,11,948.94,1.06l2.12-2.12c40,39.93,965.74,963.78,999.27,999.21,35-25.78,988.89-989.39,998.6-999.21l2.14,2.12c-2.48,2.5-250.54,253.09-496.53,500.34-144.48,145.23-260,260.9-343.31,343.81-49.47,49.23-88,87.31-114.52,113.18C1954.51,999.55,1951.29,1001.53,1950.09,1001.53Zm1-2.6.2.24A1.59,1.59,0,0,0,1951.05,998.93Z" transform="translate(1001.06 1.06)"/>
        <path class="cls-4" d="M2000.09,1001.53h-.18l-1.16-.69C1991.06,991.17,1008.86,11,998.94,1.06l2.12-2.12c40,39.93,965.74,963.78,999.27,999.21,35-25.78,988.89-989.39,998.6-999.21l2.14,2.12c-2.48,2.5-250.54,253.09-496.53,500.34-144.48,145.23-260,260.9-343.31,343.81-49.47,49.23-88,87.31-114.52,113.18C2004.51,999.55,2001.29,1001.53,2000.09,1001.53Zm1-2.6.2.24A1.59,1.59,0,0,0,2001.05,998.93Z" transform="translate(1001.06 1.06)"/>
        <path class="cls-4" d="M2050.09,1001.53h-.18l-1.16-.69C2041.06,991.17,1058.86,11,1048.94,1.06l2.12-2.12c40,39.93,965.74,963.78,999.27,999.21,35-25.78,988.89-989.39,998.6-999.21l2.14,2.12c-2.48,2.5-250.54,253.09-496.53,500.34-144.48,145.23-260,260.9-343.31,343.81-49.47,49.23-88,87.31-114.52,113.18C2054.51,999.55,2051.29,1001.53,2050.09,1001.53Zm1-2.6.2.24A1.59,1.59,0,0,0,2051.05,998.93Z" transform="translate(1001.06 1.06)"/>
        <path class="cls-4" d="M2100.09,1001.53h-.18l-1.16-.69C2091.06,991.17,1108.86,11,1098.94,1.06l2.12-2.12c40,39.93,965.74,963.78,999.27,999.21,35-25.78,988.89-989.39,998.6-999.21l2.14,2.12c-2.48,2.5-250.54,253.09-496.53,500.34-144.48,145.23-260,260.9-343.31,343.81-49.47,49.23-88,87.31-114.52,113.18C2104.51,999.55,2101.29,1001.53,2100.09,1001.53Zm1-2.6.2.24A1.59,1.59,0,0,0,2101.05,998.93Z" transform="translate(1001.06 1.06)"/>
        <path class="cls-4" d="M2150.09,1001.53h-.18l-1.16-.69C2141.06,991.17,1158.86,11,1148.94,1.06l2.12-2.12c40,39.93,965.74,963.78,999.27,999.21,35-25.78,988.89-989.39,998.6-999.21l2.14,2.12c-2.48,2.5-250.54,253.09-496.53,500.34-144.48,145.23-260,260.9-343.31,343.81-49.47,49.23-88,87.31-114.52,113.18C2154.51,999.55,2151.29,1001.53,2150.09,1001.53Zm1-2.6.2.24A1.59,1.59,0,0,0,2151.05,998.93Z" transform="translate(1001.06 1.06)"/>
        <path class="cls-4" d="M2200.09,1001.53h-.18l-1.16-.69C2191.06,991.17,1208.86,11,1198.94,1.06l2.12-2.12c40,39.93,965.74,963.78,999.27,999.21,35-25.78,988.89-989.39,998.6-999.21l2.14,2.12c-2.48,2.5-250.54,253.09-496.53,500.34-144.48,145.23-260,260.9-343.31,343.81-49.47,49.23-88,87.31-114.52,113.18C2204.51,999.55,2201.29,1001.53,2200.09,1001.53Zm1-2.6.2.24A1.59,1.59,0,0,0,2201.05,998.93Z" transform="translate(1001.06 1.06)"/>
        <path class="cls-4" d="M2250.09,1001.53h-.18l-1.16-.69C2241.06,991.17,1258.86,11,1248.94,1.06l2.12-2.12c40,39.93,965.74,963.78,999.27,999.21,35-25.78,988.89-989.39,998.6-999.21l2.14,2.12c-2.48,2.5-250.54,253.09-496.53,500.34-144.48,145.23-260,260.9-343.31,343.81-49.47,49.23-88,87.31-114.52,113.18C2254.51,999.55,2251.29,1001.53,2250.09,1001.53Zm1-2.6.2.24A1.59,1.59,0,0,0,2251.05,998.93Z" transform="translate(1001.06 1.06)"/>
        <path class="cls-4" d="M2300.09,1001.53h-.18l-1.16-.69C2291.06,991.17,1308.86,11,1298.94,1.06l2.12-2.12c40,39.93,965.74,963.78,999.27,999.21,35-25.78,988.89-989.39,998.6-999.21l2.14,2.12c-2.48,2.5-250.54,253.09-496.53,500.34-144.48,145.23-260,260.9-343.31,343.81-49.47,49.23-88,87.31-114.52,113.18C2304.51,999.55,2301.29,1001.53,2300.09,1001.53Zm1-2.6.2.24A1.59,1.59,0,0,0,2301.05,998.93Z" transform="translate(1001.06 1.06)"/>
        <path class="cls-4" d="M2350.09,1001.53h-.18l-1.16-.69C2341.06,991.17,1358.86,11,1348.94,1.06l2.12-2.12c40,39.93,965.74,963.78,999.27,999.21,35-25.78,988.89-989.39,998.6-999.21l2.14,2.12c-2.48,2.5-250.54,253.09-496.53,500.34-144.48,145.23-260,260.9-343.31,343.81-49.47,49.23-88,87.31-114.52,113.18C2354.51,999.55,2351.29,1001.53,2350.09,1001.53Zm1-2.6.2.24A1.59,1.59,0,0,0,2351.05,998.93Z" transform="translate(1001.06 1.06)"/>
        <path class="cls-4" d="M2400.09,1001.53h-.18l-1.16-.69C2391.06,991.17,1408.86,11,1398.94,1.06l2.12-2.12c40,39.93,965.74,963.78,999.27,999.21,35-25.78,988.89-989.39,998.6-999.21l2.14,2.12c-2.48,2.5-250.54,253.09-496.53,500.34-144.48,145.23-260,260.9-343.31,343.81-49.47,49.23-88,87.31-114.52,113.18C2404.51,999.55,2401.29,1001.53,2400.09,1001.53Zm1-2.6.2.24A1.59,1.59,0,0,0,2401.05,998.93Z" transform="translate(1001.06 1.06)"/>
        <path class="cls-4" d="M2450.09,1001.53h-.18l-1.16-.69C2441.06,991.17,1458.86,11,1448.94,1.06l2.12-2.12c40,39.93,965.74,963.78,999.27,999.21,35-25.78,988.89-989.39,998.6-999.21l2.14,2.12c-2.48,2.5-250.54,253.09-496.53,500.34-144.48,145.23-260,260.9-343.31,343.81-49.47,49.23-88,87.31-114.52,113.18C2454.51,999.55,2451.29,1001.53,2450.09,1001.53Zm1-2.6.2.24A1.59,1.59,0,0,0,2451.05,998.93Z" transform="translate(1001.06 1.06)"/>
        <path class="cls-4" d="M2500.09,1001.53h-.18l-1.16-.69C2491.06,991.17,1508.86,11,1498.94,1.06l2.12-2.12c40,39.93,965.74,963.78,999.27,999.21,35-25.78,988.89-989.39,998.6-999.21l2.14,2.12c-2.48,2.5-250.54,253.09-496.53,500.34-144.48,145.23-260,260.9-343.31,343.81-49.47,49.23-88,87.31-114.52,113.18C2504.51,999.55,2501.29,1001.53,2500.09,1001.53Zm1-2.6.2.24A1.59,1.59,0,0,0,2501.05,998.93Z" transform="translate(1001.06 1.06)"/>
        <path class="cls-4" d="M2550.09,1001.53h-.18l-1.16-.69C2541.06,991.17,1558.86,11,1548.94,1.06l2.12-2.12c40,39.93,965.74,963.78,999.27,999.21,35-25.78,988.89-989.39,998.6-999.21l2.14,2.12c-2.48,2.5-250.54,253.09-496.53,500.34-144.48,145.23-260,260.9-343.31,343.81-49.47,49.23-88,87.31-114.52,113.18C2554.51,999.55,2551.29,1001.53,2550.09,1001.53Zm1-2.6.2.24A1.59,1.59,0,0,0,2551.05,998.93Z" transform="translate(1001.06 1.06)"/>
        <path class="cls-4" d="M2600.09,1001.53h-.18l-1.16-.69C2591.06,991.17,1608.86,11,1598.94,1.06l2.12-2.12c40,39.93,965.74,963.78,999.27,999.21,35-25.78,988.89-989.39,998.6-999.21l2.14,2.12c-2.48,2.5-250.54,253.09-496.53,500.34-144.48,145.23-260,260.9-343.31,343.81-49.47,49.23-88,87.31-114.52,113.18C2604.51,999.55,2601.29,1001.53,2600.09,1001.53Zm1-2.6.2.24A1.59,1.59,0,0,0,2601.05,998.93Z" transform="translate(1001.06 1.06)"/>
        <path class="cls-4" d="M2650.09,1001.53h-.18l-1.16-.69C2641.06,991.17,1658.86,11,1648.94,1.06l2.12-2.12c40,39.93,965.74,963.78,999.27,999.21,35-25.78,988.89-989.39,998.6-999.21l2.14,2.12c-2.48,2.5-250.54,253.09-496.53,500.34-144.48,145.23-260,260.9-343.31,343.81-49.47,49.23-88,87.31-114.52,113.18C2654.51,999.55,2651.29,1001.53,2650.09,1001.53Zm1-2.6.2.24A1.59,1.59,0,0,0,2651.05,998.93Z" transform="translate(1001.06 1.06)"/>
        <path class="cls-4" d="M2700.09,1001.53h-.18l-1.16-.69C2691.06,991.17,1708.86,11,1698.94,1.06l2.12-2.12c40,39.93,965.74,963.78,999.27,999.21,35-25.78,988.89-989.39,998.6-999.21l2.14,2.12c-2.48,2.5-250.54,253.09-496.53,500.34-144.48,145.23-260,260.9-343.31,343.81-49.47,49.23-88,87.31-114.52,113.18C2704.51,999.55,2701.29,1001.53,2700.09,1001.53Zm1-2.6.2.24A1.59,1.59,0,0,0,2701.05,998.93Z" transform="translate(1001.06 1.06)"/>
        <path class="cls-4" d="M2750.09,1001.53h-.18l-1.16-.69C2741.06,991.17,1758.86,11,1748.94,1.06l2.12-2.12c40,39.93,965.74,963.78,999.27,999.21,35-25.78,988.89-989.39,998.6-999.21l2.14,2.12c-2.48,2.5-250.54,253.09-496.53,500.34-144.48,145.23-260,260.9-343.31,343.81-49.47,49.23-88,87.31-114.52,113.18C2754.51,999.55,2751.29,1001.53,2750.09,1001.53Zm1-2.6.2.24A1.59,1.59,0,0,0,2751.05,998.93Z" transform="translate(1001.06 1.06)"/>
        <path class="cls-4" d="M2800.09,1001.53h-.18l-1.16-.69C2791.06,991.17,1808.86,11,1798.94,1.06l2.12-2.12c40,39.93,965.74,963.78,999.27,999.21,35-25.78,988.89-989.39,998.6-999.21l2.14,2.12c-2.48,2.5-250.54,253.09-496.53,500.34-144.48,145.23-260,260.9-343.31,343.81-49.47,49.23-88,87.31-114.52,113.18C2804.51,999.55,2801.29,1001.53,2800.09,1001.53Zm1-2.6.2.24A1.59,1.59,0,0,0,2801.05,998.93Z" transform="translate(1001.06 1.06)"/>
        <path class="cls-4" d="M2850.09,1001.53h-.18l-1.16-.69C2841.06,991.17,1858.86,11,1848.94,1.06l2.12-2.12c40,39.93,965.74,963.78,999.27,999.21,35-25.78,988.89-989.39,998.6-999.21l2.14,2.12c-2.48,2.5-250.54,253.09-496.53,500.34-144.48,145.23-260,260.9-343.31,343.81-49.47,49.23-88,87.31-114.52,113.18C2854.51,999.55,2851.29,1001.53,2850.09,1001.53Zm1-2.6.2.24A1.59,1.59,0,0,0,2851.05,998.93Z" transform="translate(1001.06 1.06)"/>
        <path class="cls-4" d="M2900.09,1001.53h-.18l-1.16-.69C2891.06,991.17,1908.86,11,1898.94,1.06l2.12-2.12c40,39.93,965.74,963.78,999.27,999.21,35-25.78,988.89-989.39,998.6-999.21l2.14,2.12c-2.48,2.5-250.54,253.09-496.53,500.34-144.48,145.23-260,260.9-343.31,343.81-49.47,49.23-88,87.31-114.52,113.18C2904.51,999.55,2901.29,1001.53,2900.09,1001.53Zm1-2.6.2.24A1.59,1.59,0,0,0,2901.05,998.93Z" transform="translate(1001.06 1.06)"/>
        <path class="cls-4" d="M2950.09,1001.53h-.18l-1.16-.69C2941.06,991.17,1958.86,11,1948.94,1.06l2.12-2.12c40,39.93,965.74,963.78,999.27,999.21,35-25.78,988.89-989.39,998.6-999.21l2.14,2.12c-2.48,2.5-250.54,253.09-496.53,500.34-144.48,145.23-260,260.9-343.31,343.81-49.47,49.23-88,87.31-114.52,113.18C2954.51,999.55,2951.29,1001.53,2950.09,1001.53Zm1-2.6.2.24A1.59,1.59,0,0,0,2951.05,998.93Z" transform="translate(1001.06 1.06)"/>
      </g>
    </g>
  </g>
</svg>
