<svg id="Слой_1" data-name="Слой 1" xmlns="http://www.w3.org/2000/svg" viewBox="0 0 124.38 92.46">
  <defs>
    <style>
      .cls-1 {
        fill: #fff;
      }

      .cls-2 {
        fill: #ddd;
      }

      .cls-3 {
        fill: none;
      }
    </style>
  </defs>
  <g>
    <g>
      <g>
        <path class="cls-1" d="M39.81,56.19a11,11,0,0,1-4.33-4.08,11.95,11.95,0,0,1,0-11.84,10.84,10.84,0,0,1,4.33-4.08A13,13,0,0,1,46,34.72a13.42,13.42,0,0,1,5.45,1.07,10.55,10.55,0,0,1,4,3.09l-4,3.59a6.52,6.52,0,0,0-5.19-2.58,6.35,6.35,0,0,0-3.2.79A5.4,5.4,0,0,0,41,42.9a7.41,7.41,0,0,0,0,6.58,5.52,5.52,0,0,0,2.17,2.22,6.46,6.46,0,0,0,3.2.79,6.53,6.53,0,0,0,5.19-2.59l4,3.59a10.36,10.36,0,0,1-4,3.09A13.42,13.42,0,0,1,46,57.65,13.12,13.12,0,0,1,39.81,56.19Z"/>
        <path class="cls-1" d="M46,57.77a13.19,13.19,0,0,1-6.27-1.48,11.14,11.14,0,0,1-4.38-4.12,12,12,0,0,1,0-12,11.07,11.07,0,0,1,4.38-4.12A13.19,13.19,0,0,1,46,34.61a13.53,13.53,0,0,1,5.5,1.08,10.74,10.74,0,0,1,4.07,3.12l.07.08-4.14,3.75-.07-.1A6.47,6.47,0,0,0,46.35,40a6.25,6.25,0,0,0-3.14.78A5.36,5.36,0,0,0,41.08,43a7.27,7.27,0,0,0,0,6.47,5.33,5.33,0,0,0,2.13,2.18,6.32,6.32,0,0,0,3.14.77,6.44,6.44,0,0,0,5.11-2.54l.07-.09,4.14,3.74-.07.08a10.54,10.54,0,0,1-4.07,3.12A13.53,13.53,0,0,1,46,57.77Zm0-22.93a13,13,0,0,0-6.16,1.45,10.89,10.89,0,0,0-4.29,4,11.81,11.81,0,0,0,0,11.73,10.91,10.91,0,0,0,4.29,4h0A13,13,0,0,0,46,57.54a13.34,13.34,0,0,0,5.4-1.06,10.54,10.54,0,0,0,3.93-3l-3.8-3.44a6.77,6.77,0,0,1-8.47,1.73,5.62,5.62,0,0,1-2.21-2.27,7.48,7.48,0,0,1,0-6.69,5.59,5.59,0,0,1,2.21-2.26,6.52,6.52,0,0,1,3.26-.81,6.64,6.64,0,0,1,5.21,2.54l3.8-3.44a10.44,10.44,0,0,0-3.93-3A13.18,13.18,0,0,0,46,34.84Z"/>
      </g>
      <g>
        <path class="cls-1" d="M77.18,35.16h6.24V57.21H77.18Z"/>
        <path class="cls-1" d="M83.53,57.32H77.07V35.05h6.46Zm-6.24-.22h6V35.28h-6Z"/>
      </g>
      <g>
        <path class="cls-1" d="M109.3,57a12.84,12.84,0,0,1-4.09-1.76l2.05-4.6a13.21,13.21,0,0,0,3.43,1.57,13,13,0,0,0,3.84.6c2.4,0,3.59-.6,3.59-1.79a1.5,1.5,0,0,0-1-1.41,19.58,19.58,0,0,0-3.29-1,30.18,30.18,0,0,1-4.16-1.15,7,7,0,0,1-2.86-2,5.33,5.33,0,0,1-1.2-3.66,6.39,6.39,0,0,1,1.1-3.64A7.34,7.34,0,0,1,110,35.67a13.55,13.55,0,0,1,5.37-1,19.18,19.18,0,0,1,4.28.49,13.22,13.22,0,0,1,3.72,1.43l-1.92,4.63a12.89,12.89,0,0,0-6.11-1.7,5.21,5.21,0,0,0-2.71.55,1.66,1.66,0,0,0-.85,1.44,1.42,1.42,0,0,0,1,1.32,18.1,18.1,0,0,0,3.24.91,31.19,31.19,0,0,1,4.18,1.15,7.16,7.16,0,0,1,2.86,2,5.19,5.19,0,0,1,1.21,3.63,6.14,6.14,0,0,1-1.1,3.59,7.5,7.5,0,0,1-3.31,2.57,13.36,13.36,0,0,1-5.35,1A20.48,20.48,0,0,1,109.3,57Z"/>
        <path class="cls-1" d="M114.5,57.77a20.58,20.58,0,0,1-5.22-.67h0a12.93,12.93,0,0,1-4.14-1.78l-.07,0,2.14-4.81.11.07a13.91,13.91,0,0,0,7.21,2.16c2.31,0,3.48-.57,3.48-1.68a1.36,1.36,0,0,0-1-1.3,19.22,19.22,0,0,0-3.27-1,31.19,31.19,0,0,1-4.17-1.15,7.05,7.05,0,0,1-2.91-2,5.46,5.46,0,0,1-1.23-3.73,6.44,6.44,0,0,1,1.13-3.7,7.52,7.52,0,0,1,3.34-2.61,13.75,13.75,0,0,1,5.41-1,18.93,18.93,0,0,1,4.31.49,13.32,13.32,0,0,1,3.75,1.44l.08.06,0,.09-2,4.74-.11-.06a12.78,12.78,0,0,0-6.06-1.68,5.11,5.11,0,0,0-2.65.53,1.56,1.56,0,0,0-.8,1.34,1.32,1.32,0,0,0,.94,1.22,18.37,18.37,0,0,0,3.23.9,33.44,33.44,0,0,1,4.19,1.15,7.5,7.5,0,0,1,2.91,2,5.36,5.36,0,0,1,1.24,3.71,6.4,6.4,0,0,1-1.12,3.66,7.7,7.7,0,0,1-3.36,2.6A13.46,13.46,0,0,1,114.5,57.77Zm-9.15-2.58a13.13,13.13,0,0,0,4,1.69h0a20.24,20.24,0,0,0,5.17.66,13.37,13.37,0,0,0,5.31-.95,7.46,7.46,0,0,0,3.26-2.53,6.11,6.11,0,0,0,1.08-3.53A5.17,5.17,0,0,0,123,47a7.14,7.14,0,0,0-2.82-1.92A29.15,29.15,0,0,0,116,43.91a18.51,18.51,0,0,1-3.27-.93,1.52,1.52,0,0,1-1.07-1.42,1.76,1.76,0,0,1,.9-1.53,5.21,5.21,0,0,1,2.77-.57,13,13,0,0,1,6.05,1.65l1.84-4.42a13.69,13.69,0,0,0-3.6-1.37,19.06,19.06,0,0,0-4.26-.48,13.52,13.52,0,0,0-5.32.93,7.2,7.2,0,0,0-3.24,2.53,6.24,6.24,0,0,0-1.09,3.57,5.26,5.26,0,0,0,1.17,3.58,7,7,0,0,0,2.82,1.94,32.33,32.33,0,0,0,4.14,1.14,19,19,0,0,1,3.32,1A1.6,1.6,0,0,1,118.24,51c0,1.26-1.25,1.9-3.71,1.9a13.21,13.21,0,0,1-3.87-.6,13.37,13.37,0,0,1-3.35-1.51Z"/>
      </g>
    </g>
    <circle class="cls-1" cx="46.23" cy="5.97" r="5.97"/>
    <circle class="cls-1" cx="17.76" cy="17.76" r="5.97"/>
    <circle class="cls-1" cx="5.97" cy="46.23" r="5.97"/>
    <circle class="cls-1" cx="17.76" cy="74.7" r="5.97"/>
    <circle class="cls-1" cx="46.23" cy="86.49" r="5.97"/>
    <path class="cls-2" d="M73.75,59A30.31,30.31,0,1,1,73,32L67.5,34.81l-5.41,2.83a18,18,0,1,0,.3,16.61L68,56.59Z"/>
    <path class="cls-1" d="M68,56.59a24.13,24.13,0,1,1-.53-21.78l-5.41,2.83a18,18,0,1,0,.3,16.61Z"/>
    <polyline class="cls-3" points="72.98 31.95 67.5 34.81 62.09 37.64 62.01 37.68"/>
    <polyline class="cls-3" points="73.84 59 73.75 58.96 68.03 56.59 62.39 54.25 62.31 54.22"/>
  </g>
</svg>
