<svg id="Слой_1" data-name="Слой 1" xmlns="http://www.w3.org/2000/svg" viewBox="0 0 94.38 92.46">
  <defs>
    <style>
      .cls-1 {
        fill: #2a63d2;
      }

      .cls-2 {
        fill: #fff;
      }

      .cls-3 {
        fill: #ddd;
      }

      .cls-4 {
        fill: none;
      }
    </style>
  </defs>
  <g>
    <g>
      <g>
        <path class="cls-1" d="M39.81,56.19a11,11,0,0,1-4.33-4.08,11.95,11.95,0,0,1,0-11.84,10.84,10.84,0,0,1,4.33-4.08A13,13,0,0,1,46,34.72a13.42,13.42,0,0,1,5.45,1.07,10.55,10.55,0,0,1,4,3.09l-4,3.59a6.52,6.52,0,0,0-5.19-2.58,6.35,6.35,0,0,0-3.2.79A5.4,5.4,0,0,0,41,42.9a7.41,7.41,0,0,0,0,6.58,5.52,5.52,0,0,0,2.17,2.22,6.46,6.46,0,0,0,3.2.79,6.53,6.53,0,0,0,5.19-2.59l4,3.59a10.36,10.36,0,0,1-4,3.09A13.42,13.42,0,0,1,46,57.65,13.12,13.12,0,0,1,39.81,56.19Z"/>
        <path class="cls-2" d="M46,57.77a13.19,13.19,0,0,1-6.27-1.48,11.14,11.14,0,0,1-4.38-4.12,12,12,0,0,1,0-12,11.07,11.07,0,0,1,4.38-4.12A13.19,13.19,0,0,1,46,34.61a13.53,13.53,0,0,1,5.5,1.08,10.74,10.74,0,0,1,4.07,3.12l.07.08-4.14,3.75-.07-.1A6.47,6.47,0,0,0,46.35,40a6.25,6.25,0,0,0-3.14.78A5.36,5.36,0,0,0,41.08,43a7.27,7.27,0,0,0,0,6.47,5.33,5.33,0,0,0,2.13,2.18,6.32,6.32,0,0,0,3.14.77,6.44,6.44,0,0,0,5.11-2.54l.07-.09,4.14,3.74-.07.08a10.54,10.54,0,0,1-4.07,3.12A13.53,13.53,0,0,1,46,57.77Zm0-22.93a13,13,0,0,0-6.16,1.45,10.89,10.89,0,0,0-4.29,4,11.81,11.81,0,0,0,0,11.73,10.91,10.91,0,0,0,4.29,4h0A13,13,0,0,0,46,57.54a13.34,13.34,0,0,0,5.4-1.06,10.54,10.54,0,0,0,3.93-3l-3.8-3.44a6.77,6.77,0,0,1-8.47,1.73,5.62,5.62,0,0,1-2.21-2.27,7.48,7.48,0,0,1,0-6.69,5.59,5.59,0,0,1,2.21-2.26,6.52,6.52,0,0,1,3.26-.81,6.64,6.64,0,0,1,5.21,2.54l3.8-3.44a10.44,10.44,0,0,0-3.93-3A13.18,13.18,0,0,0,46,34.84Z"/>
      </g>
    </g>
    <circle class="cls-1" cx="46.23" cy="5.97" r="5.97"/>
    <circle class="cls-1" cx="17.76" cy="17.76" r="5.97"/>
    <circle class="cls-1" cx="5.97" cy="46.23" r="5.97"/>
    <circle class="cls-1" cx="17.76" cy="74.7" r="5.97"/>
    <circle class="cls-1" cx="46.23" cy="86.49" r="5.97"/>
    <path class="cls-3" d="M73.75,59A30.31,30.31,0,1,1,73,32L67.5,34.81l-5.41,2.83a18,18,0,1,0,.3,16.61L68,56.59Z"/>
    <path class="cls-1" d="M68,56.59a24.13,24.13,0,1,1-.53-21.78l-5.41,2.83a18,18,0,1,0,.3,16.61Z"/>
    <polyline class="cls-4" points="72.98 31.95 67.5 34.81 62.09 37.64 62.01 37.68"/>
    <polyline class="cls-4" points="73.84 59 73.75 58.96 68.03 56.59 62.39 54.25 62.31 54.22"/>
  </g>
</svg>
